<svg id="splitsvg" version="1.1" xmlns="http://www.w3.org/2000/svg" xmlns:xlink="http://www.w3.org/1999/xlink" width="1380" height="401"><g id="svgg"><path id="path0" d="M0.000 200.800 L 0.000 401.600 200.000 401.600 L 400.000 401.600 400.000 200.800 L 400.000 0.000 200.000 0.000 L 0.000 0.000 0.000 200.800 M209.056 8.817 C 366.403 17.996,446.142 199.572,346.063 320.800 C 269.360 413.712,123.781 411.452,49.797 316.200 C -31.803 211.143,15.955 57.344,142.600 17.339 C 163.891 10.614,187.644 7.568,209.056 8.817 M187.400 16.655 C 92.651 22.772,18.658 102.532,18.608 198.600 C 18.549 312.318,119.159 397.487,231.200 378.563 C 313.022 364.743,376.019 294.718,381.587 211.400 C 388.983 100.704,298.052 9.511,187.400 16.655 M213.800 20.833 C 328.804 28.424,406.762 145.489,369.956 255.322 C 333.863 363.028,204.518 410.717,108.094 351.871 C -8.337 280.816,-7.957 115.842,108.800 45.203 C 139.401 26.689,175.521 18.306,213.800 20.833 M194.712 48.100 C 194.302 48.420,193.627 50.755,192.834 54.600 C 190.260 67.085,190.470 66.996,186.670 57.200 C 183.135 48.087,183.631 48.800,180.826 48.800 C 176.500 48.800,174.336 49.841,176.558 50.853 C 177.711 51.379,177.855 52.404,178.241 62.855 C 178.512 70.205,178.504 70.316,177.658 70.769 C 176.727 71.267,176.492 72.369,177.300 72.450 C 181.900 72.906,184.886 71.751,182.758 70.339 C 181.851 69.736,181.236 64.720,181.245 58.000 L 181.249 55.000 182.209 57.000 C 182.737 58.100,184.003 60.980,185.023 63.400 C 187.431 69.119,187.753 69.600,189.165 69.600 C 191.330 69.600,191.866 68.661,193.613 61.800 C 195.668 53.731,195.564 54.038,195.987 54.800 C 196.770 56.211,197.348 68.902,196.652 69.411 C 194.935 70.667,195.849 71.292,199.182 71.140 C 203.037 70.965,203.897 70.401,202.309 69.088 C 201.277 68.236,201.209 67.935,200.621 61.600 C 200.285 57.970,199.893 53.894,199.752 52.541 C 199.523 50.349,199.587 50.003,200.347 49.352 C 201.919 48.007,201.438 47.600,198.276 47.600 C 196.546 47.600,195.091 47.804,194.712 48.100 M212.400 48.986 C 212.400 49.308,212.760 49.765,213.200 50.000 C 214.256 50.565,214.236 51.688,213.006 60.600 C 211.735 69.811,211.842 69.437,210.323 69.967 C 209.207 70.356,209.117 70.487,209.621 70.987 C 210.452 71.810,217.490 72.672,218.125 72.029 C 218.641 71.504,217.556 70.400,216.524 70.400 C 215.963 70.400,215.863 67.290,216.350 65.000 L 216.605 63.800 221.035 63.600 C 228.599 63.258,232.540 57.652,228.854 52.476 C 227.090 49.999,212.400 46.883,212.400 48.986 M222.165 52.250 C 227.890 54.201,226.483 61.400,220.376 61.400 C 216.853 61.400,216.798 61.307,217.460 56.528 C 218.185 51.284,218.497 51.000,222.165 52.250 M155.800 54.017 C 152.060 55.099,148.955 55.988,148.900 55.992 C 148.180 56.048,149.002 57.600,149.751 57.600 C 150.995 57.600,151.118 57.925,154.419 69.912 C 155.982 75.592,156.055 76.076,155.451 76.744 C 153.563 78.829,154.805 78.838,162.080 76.789 C 170.387 74.449,171.200 74.113,171.200 73.016 C 171.200 71.318,170.275 71.048,168.132 72.122 C 161.168 75.608,160.082 75.416,158.634 70.438 C 157.411 66.228,157.383 66.279,161.425 65.193 C 165.274 64.159,166.242 63.608,165.878 62.658 C 165.546 61.794,164.641 61.828,161.416 62.824 C 157.150 64.142,156.777 63.974,155.825 60.309 C 155.304 58.306,155.158 57.082,155.411 56.830 C 156.032 56.209,160.395 55.200,162.455 55.200 C 164.986 55.200,166.001 54.298,165.186 52.774 C 164.585 51.652,163.458 51.801,155.800 54.017 M239.784 53.625 C 239.640 53.859,239.809 54.368,240.161 54.757 C 241.083 55.775,241.042 55.996,238.365 64.482 C 235.716 72.881,235.198 74.000,233.961 74.000 C 229.865 74.000,243.417 79.524,248.000 79.722 C 250.328 79.823,250.897 77.508,248.600 77.282 C 243.177 76.748,239.430 75.148,239.758 73.508 C 241.147 66.563,241.514 66.260,246.642 67.824 C 250.128 68.887,250.800 68.855,250.800 67.620 C 250.800 66.831,249.466 66.180,245.520 65.045 C 242.568 64.196,242.551 64.150,243.818 60.346 L 244.895 57.111 246.276 57.335 C 247.035 57.458,249.163 58.288,251.005 59.179 C 254.966 61.097,255.101 61.113,255.626 59.731 C 256.240 58.115,255.673 57.793,247.967 55.385 C 240.476 53.044,240.182 52.981,239.784 53.625 M134.600 62.193 C 128.272 63.904,120.125 69.047,124.730 68.423 C 126.296 68.211,134.527 85.154,133.441 86.354 C 132.716 87.156,132.619 87.841,133.183 88.189 C 133.803 88.573,140.800 84.876,140.800 84.165 C 140.800 83.683,140.451 83.568,139.300 83.669 C 137.837 83.797,137.768 83.741,136.511 81.400 C 134.831 78.272,134.864 77.977,137.017 76.835 C 142.951 73.687,144.810 68.877,141.833 64.378 C 140.120 61.790,138.218 61.215,134.600 62.193 M265.477 62.656 C 265.336 62.797,265.531 63.438,265.911 64.082 C 267.096 66.093,258.778 81.600,256.513 81.600 C 254.337 81.600,255.002 82.764,258.165 84.493 C 261.869 86.518,263.206 86.480,261.900 84.388 C 261.098 83.104,263.280 79.285,265.514 78.062 C 268.266 76.557,268.400 76.782,268.400 82.928 C 268.400 89.449,268.688 90.417,270.987 91.637 C 273.258 92.842,274.363 92.262,273.388 90.376 C 272.657 88.962,272.059 84.607,271.912 79.621 L 271.800 75.842 276.200 74.345 C 278.620 73.522,281.275 72.837,282.100 72.824 C 284.440 72.786,284.087 71.652,281.249 70.092 C 278.283 68.462,277.600 68.437,277.600 69.960 C 277.600 71.072,269.438 74.800,267.003 74.800 C 265.251 74.800,269.689 67.061,271.547 66.875 C 273.562 66.673,273.034 65.757,269.900 64.019 C 267.085 62.458,266.008 62.126,265.477 62.656 M137.354 66.035 C 141.170 69.037,138.866 75.600,133.997 75.600 C 133.521 75.600,130.000 68.336,130.000 67.355 C 130.000 65.658,135.597 64.654,137.354 66.035 M212.400 97.318 C 210.998 98.026,210.536 99.241,210.016 103.585 C 209.767 105.667,209.477 107.456,209.373 107.560 C 209.268 107.665,203.562 108.606,196.691 109.651 C 189.821 110.696,179.644 112.463,174.076 113.576 C 162.521 115.886,162.672 115.872,161.309 114.800 C 159.937 113.721,159.706 113.775,158.745 115.403 C 157.679 117.209,156.426 117.528,154.665 116.440 C 152.844 115.315,152.188 115.381,151.621 116.748 C 150.738 118.881,148.992 119.124,146.677 117.435 L 145.554 116.616 144.277 118.087 C 143.122 119.418,142.338 119.782,140.918 119.646 C 140.653 119.621,139.331 118.149,137.981 116.375 C 131.556 107.935,125.973 103.773,122.933 105.158 C 121.196 105.949,121.726 108.164,126.021 118.079 C 128.857 124.627,128.852 124.590,127.419 127.800 C 122.798 138.150,121.305 143.145,122.480 144.320 C 124.798 146.638,132.202 141.788,137.881 134.231 C 141.836 128.968,142.844 128.439,144.637 130.688 L 145.504 131.775 147.074 130.688 C 149.146 129.251,149.829 129.313,151.451 131.083 C 152.808 132.565,152.811 132.566,153.967 131.883 C 155.983 130.692,157.693 131.047,158.625 132.848 C 159.214 133.988,160.507 134.397,161.000 133.600 C 161.834 132.251,164.645 133.539,165.177 135.513 C 166.189 139.272,169.672 142.842,174.599 145.170 C 178.278 146.909,178.857 146.817,183.231 143.800 C 187.596 140.789,187.334 140.823,194.206 142.366 C 199.224 143.492,206.062 144.494,212.497 145.045 C 216.154 145.358,216.019 145.221,217.200 149.800 C 218.479 154.758,218.943 155.600,220.395 155.600 C 224.053 155.600,228.615 152.372,232.631 146.941 C 235.244 143.407,234.933 143.574,241.800 142.021 C 256.631 138.666,265.022 134.060,273.067 124.859 C 277.460 119.834,277.153 119.196,268.188 114.700 C 260.240 110.715,244.477 107.820,229.568 107.609 C 229.220 107.604,228.381 106.835,227.703 105.900 C 223.389 99.948,215.714 95.643,212.400 97.318 M217.910 101.618 C 221.048 103.186,224.768 106.592,224.086 107.274 C 223.768 107.592,221.900 107.760,218.504 107.776 L 213.400 107.800 213.264 106.602 C 212.613 100.869,213.820 99.574,217.910 101.618 M130.433 113.062 C 135.615 118.503,136.863 120.864,135.925 123.457 C 135.510 124.603,135.570 125.028,136.392 126.784 L 137.335 128.797 135.768 131.093 C 133.953 133.752,127.774 140.000,126.959 140.000 C 126.307 140.000,126.570 139.255,129.924 131.600 C 132.906 124.796,132.898 124.194,129.743 117.181 C 125.983 108.822,126.044 108.455,130.433 113.062 M217.600 111.776 C 217.600 112.093,217.420 112.464,217.200 112.600 C 216.469 113.052,216.785 113.981,218.200 115.547 C 219.998 117.537,219.963 117.872,217.900 118.424 C 214.398 119.360,214.313 120.536,217.526 123.589 C 222.243 128.071,224.757 128.756,233.286 127.885 L 236.373 127.569 237.545 129.885 C 238.923 132.610,240.917 134.766,243.407 136.225 C 245.695 137.566,245.528 137.765,241.296 138.741 C 232.525 140.764,229.767 141.001,215.200 140.984 C 197.835 140.963,199.440 141.293,167.600 131.190 C 154.901 127.161,153.369 126.790,146.986 126.198 C 140.900 125.634,139.600 125.385,139.600 124.781 C 139.600 124.169,140.348 123.964,149.091 122.177 C 159.392 120.071,159.600 120.056,159.600 121.385 C 159.600 122.290,163.813 126.400,164.741 126.400 C 166.200 126.400,166.303 124.421,164.929 122.788 C 163.431 121.008,165.205 118.811,168.663 118.162 C 170.412 117.834,170.677 118.118,169.829 119.411 C 168.804 120.977,169.188 121.985,171.542 123.901 C 174.934 126.662,177.147 125.390,174.398 122.259 C 172.924 120.580,173.041 120.185,175.765 117.675 C 179.201 114.507,182.742 115.950,180.000 119.400 C 178.361 121.462,178.472 122.050,180.900 124.182 C 184.195 127.075,186.706 126.143,183.980 123.039 L 182.717 121.600 184.004 119.593 C 185.187 117.750,185.251 117.488,184.788 116.371 C 183.902 114.231,185.987 113.459,188.800 114.887 C 191.049 116.028,191.185 116.732,189.589 118.956 C 188.009 121.156,188.184 121.841,190.874 123.983 C 193.089 125.747,193.647 125.908,194.400 125.000 C 194.802 124.516,194.772 124.227,194.246 123.500 C 192.100 120.535,192.163 120.941,193.544 119.019 C 195.060 116.908,195.077 116.645,193.800 115.127 C 192.273 113.313,192.298 113.282,195.803 112.592 C 196.902 112.375,197.362 112.724,198.983 115.004 C 200.511 117.153,200.549 116.711,198.567 119.780 C 197.695 121.130,198.104 122.077,200.376 123.980 C 203.729 126.787,206.049 125.141,202.837 122.234 C 201.729 121.231,201.779 120.698,203.161 118.790 C 204.460 116.998,204.417 116.131,202.962 114.765 C 201.107 113.022,202.409 111.600,205.860 111.600 C 207.022 111.600,207.200 111.732,207.200 112.599 C 207.200 113.179,207.787 114.248,208.600 115.147 C 209.370 116.000,210.000 116.793,210.000 116.911 C 210.000 117.028,209.370 117.878,208.600 118.800 C 206.766 120.995,206.801 121.180,209.497 123.583 C 212.809 126.535,214.837 125.935,212.614 122.659 C 211.362 120.814,211.362 120.659,212.600 119.036 C 213.150 118.314,213.600 117.278,213.600 116.732 C 213.600 116.186,213.150 115.317,212.600 114.800 C 210.567 112.890,211.924 111.200,215.489 111.200 C 217.060 111.200,217.600 111.347,217.600 111.776 M227.200 111.776 C 227.200 112.093,227.020 112.464,226.800 112.600 C 226.053 113.062,226.396 114.480,227.633 116.042 C 229.893 118.895,226.235 118.732,223.100 115.839 C 220.732 113.655,220.705 113.303,222.789 111.877 C 224.041 111.020,227.200 110.948,227.200 111.776 M235.862 111.700 C 236.032 111.975,236.120 112.680,236.059 113.266 C 235.987 113.950,236.379 114.931,237.150 115.995 C 238.451 117.791,238.417 118.808,237.057 118.786 C 235.333 118.757,230.800 115.060,230.800 113.683 C 230.800 111.955,235.002 110.309,235.862 111.700 M252.241 113.408 C 258.902 114.746,269.074 118.541,270.941 120.386 C 272.106 121.536,262.463 130.539,257.400 133.029 C 246.719 138.280,236.830 130.149,241.610 120.044 C 242.964 117.182,242.895 116.407,241.176 115.183 C 239.817 114.215,239.731 113.762,240.700 112.687 C 241.571 111.720,244.858 111.926,252.241 113.408 M256.089 118.623 C 255.037 119.360,254.865 121.624,255.801 122.401 C 257.366 123.699,259.600 122.648,259.600 120.613 C 259.600 118.400,257.835 117.400,256.089 118.623 M234.900 122.052 C 236.594 122.480,236.893 123.433,235.500 123.960 C 230.470 125.864,222.076 124.861,221.069 122.236 C 220.696 121.263,231.226 121.123,234.900 122.052 M175.875 137.368 C 183.529 139.734,183.537 139.741,180.601 141.900 C 177.981 143.827,175.810 143.078,170.738 138.497 C 167.240 135.336,168.444 135.071,175.875 137.368 M229.600 145.056 C 229.600 146.939,222.415 152.630,221.413 151.541 C 220.762 150.834,219.479 146.091,219.749 145.388 C 220.138 144.375,229.600 144.056,229.600 145.056 M88.230 174.500 C 87.906 174.995,86.570 178.550,85.261 182.400 C 80.946 195.089,74.094 214.978,73.617 216.200 C 73.360 216.860,72.696 217.875,72.142 218.456 C 70.829 219.832,71.031 219.915,76.428 220.204 C 81.787 220.491,82.698 220.195,81.237 218.639 C 80.103 217.432,80.185 214.727,81.435 212.168 L 82.200 210.600 87.800 210.485 C 95.010 210.337,94.897 210.302,95.723 212.924 C 96.637 215.822,96.597 217.698,95.601 218.599 C 93.928 220.113,95.109 220.400,103.016 220.400 C 111.838 220.400,112.856 220.145,110.774 218.459 C 110.002 217.835,106.916 209.363,97.928 183.200 C 94.284 172.590,94.946 173.600,91.630 173.600 C 89.155 173.600,88.748 173.708,88.230 174.500 M336.917 174.100 C 336.456 174.704,336.468 174.669,328.391 198.200 C 323.824 211.504,321.654 217.299,320.968 218.022 C 319.165 219.925,320.342 220.400,326.868 220.400 C 330.379 220.400,331.092 219.892,329.631 218.431 C 328.432 217.232,328.935 212.902,330.506 210.900 C 331.268 209.928,343.074 210.218,343.612 211.222 C 345.197 214.185,345.502 217.108,344.374 218.542 C 343.018 220.266,343.528 220.400,351.450 220.400 C 360.095 220.400,361.081 220.154,359.415 218.416 C 358.601 217.566,356.596 212.261,350.924 195.952 C 342.368 171.351,343.466 173.600,340.000 173.600 C 338.308 173.600,337.155 173.787,336.917 174.100 M50.236 174.742 C 50.120 174.930,50.539 175.659,51.166 176.362 C 52.788 178.178,52.800 178.331,52.800 196.790 C 52.800 216.153,52.635 217.163,49.620 216.206 C 48.194 215.754,48.050 212.320,49.411 211.191 C 51.340 209.590,48.132 206.800,44.361 206.800 C 39.267 206.800,36.733 210.802,38.954 215.341 C 42.592 222.778,57.335 223.189,62.000 215.983 C 64.555 212.038,64.541 212.146,64.781 194.126 L 65.000 177.651 66.144 176.458 C 66.773 175.802,67.167 175.070,67.020 174.833 C 66.696 174.308,50.558 174.221,50.236 174.742 M117.630 174.773 C 117.166 175.066,117.298 175.406,118.330 176.581 L 119.600 178.028 119.598 196.314 C 119.595 215.494,119.489 216.814,117.813 218.388 C 116.291 219.817,116.837 220.000,122.624 220.000 C 128.125 220.000,129.382 219.568,127.232 218.417 C 125.468 217.473,125.417 216.652,125.580 191.500 C 125.591 189.795,125.764 188.400,125.965 188.400 C 126.165 188.400,130.915 195.291,136.519 203.713 C 148.246 221.336,147.162 220.076,150.465 219.920 L 153.000 219.800 153.216 199.000 C 153.335 187.560,153.470 178.161,153.516 178.114 C 154.925 176.669,156.040 175.107,155.821 174.887 C 155.452 174.516,147.043 174.252,145.771 174.571 C 144.688 174.843,144.465 175.897,145.415 176.261 C 147.060 176.892,147.388 178.640,147.532 187.545 C 147.723 199.365,148.425 199.574,138.473 184.854 C 134.882 179.543,131.609 175.019,131.199 174.799 C 130.270 174.302,118.410 174.280,117.630 174.773 M162.800 174.809 C 162.287 175.149,162.328 175.307,163.084 175.903 C 165.135 177.519,165.200 178.188,165.200 197.613 C 165.200 216.288,165.189 216.423,163.499 218.280 C 161.599 220.368,161.830 220.400,178.938 220.400 C 197.290 220.400,195.369 221.062,195.960 214.531 C 196.736 205.950,196.513 205.176,194.403 209.133 C 191.368 214.828,190.035 215.600,183.241 215.600 C 176.876 215.600,177.200 216.005,177.200 208.051 C 177.200 200.832,177.214 200.800,180.300 200.800 C 183.317 200.800,186.066 202.578,187.566 205.500 C 188.895 208.089,189.200 206.689,189.200 198.000 C 189.200 188.799,189.152 188.658,187.031 191.610 C 185.250 194.089,183.669 195.084,180.975 195.420 C 177.183 195.894,177.200 195.930,177.200 187.466 C 177.200 178.652,176.848 179.200,182.506 179.200 C 188.361 179.200,189.366 179.777,192.075 184.698 C 193.656 187.570,194.246 188.287,194.676 187.858 C 195.029 187.505,193.931 175.455,193.495 174.900 C 192.998 174.267,163.751 174.180,162.800 174.809 M199.794 174.900 C 199.515 175.669,198.807 182.389,198.803 184.300 C 198.799 186.568,199.236 186.447,201.213 183.628 C 203.912 179.780,209.678 177.518,211.681 179.521 C 211.874 179.714,211.979 188.138,211.915 198.310 L 211.800 216.748 210.700 217.896 C 208.724 219.957,208.872 220.000,218.000 220.000 C 227.163 220.000,227.073 220.028,225.300 217.705 L 224.200 216.263 224.083 198.632 C 223.942 177.371,223.642 179.200,227.260 179.200 C 231.402 179.200,234.800 181.766,234.800 184.893 C 234.800 185.856,234.956 186.000,236.000 186.000 C 237.073 186.000,237.200 185.870,237.200 184.770 C 237.200 181.582,242.178 178.472,246.200 179.146 L 247.800 179.414 247.800 198.081 L 247.800 216.748 246.700 217.896 C 244.725 219.957,244.874 220.000,253.976 220.000 C 262.240 220.000,263.428 219.817,262.132 218.745 C 260.102 217.066,260.018 216.220,260.015 197.600 C 260.012 177.867,259.796 179.046,263.403 179.101 C 266.553 179.149,268.428 180.162,270.258 182.805 C 272.362 185.843,272.755 186.243,273.113 185.704 C 273.428 185.229,272.689 176.129,272.240 174.961 C 271.938 174.173,200.079 174.113,199.794 174.900 M276.000 174.943 C 276.000 175.284,276.438 176.002,276.973 176.537 C 278.410 177.973,278.448 178.596,278.319 198.474 L 278.200 216.748 277.100 217.896 C 275.124 219.957,275.272 220.000,284.400 220.000 C 293.473 220.000,293.665 219.947,291.778 217.977 C 289.661 215.767,289.241 203.200,291.284 203.200 C 293.605 203.200,295.539 206.022,297.808 212.723 C 300.694 221.245,305.684 224.131,312.200 221.045 C 315.632 219.420,318.073 216.003,315.995 215.731 C 313.157 215.360,312.301 215.039,311.198 213.936 C 309.806 212.545,308.436 209.993,307.431 206.925 C 307.058 205.784,306.226 204.187,305.582 203.377 C 304.165 201.594,304.176 201.572,307.300 200.087 C 320.313 193.903,317.605 179.669,302.600 175.381 C 299.090 174.378,276.000 173.997,276.000 174.943 M299.070 180.454 C 307.757 184.925,304.156 196.991,293.781 198.176 C 290.185 198.586,290.200 198.624,290.200 188.932 C 290.200 184.350,290.338 180.262,290.507 179.849 C 290.974 178.706,296.421 179.091,299.070 180.454 M90.882 197.820 C 93.469 205.487,93.589 205.242,87.309 205.053 C 83.712 204.944,83.724 205.008,86.044 198.063 C 88.500 190.712,88.485 190.713,90.882 197.820 M339.367 197.500 C 341.930 205.191,341.929 205.193,336.400 205.190 C 332.177 205.188,332.183 205.208,334.567 198.099 C 337.178 190.314,336.980 190.339,339.367 197.500 M124.950 239.386 C 124.835 239.686,124.799 240.443,124.870 241.066 L 125.000 242.200 199.800 242.200 L 274.600 242.200 274.600 240.600 L 274.600 239.000 199.880 238.920 C 137.019 238.852,125.127 238.926,124.950 239.386 M140.942 254.288 C 140.317 256.780,135.723 256.600,199.800 256.600 C 263.900 256.600,259.284 256.782,258.655 254.279 L 258.393 253.234 199.798 253.243 L 141.202 253.253 140.942 254.288 M159.176 269.287 C 158.333 269.599,158.064 271.745,158.810 272.206 C 159.363 272.548,240.614 272.562,241.166 272.221 C 241.785 271.838,241.704 269.615,241.062 269.368 C 240.219 269.045,160.046 268.965,159.176 269.287 M98.186 282.735 C 98.654 284.868,84.020 297.651,83.000 296.000 C 82.577 295.316,81.600 295.561,81.600 296.351 C 81.600 297.246,86.628 302.800,87.437 302.800 C 88.078 302.800,88.207 301.375,87.600 301.000 C 86.735 300.466,87.288 299.227,89.183 297.455 C 91.581 295.211,91.588 295.211,93.928 297.155 C 99.038 301.401,103.766 301.071,106.578 296.274 C 108.534 292.936,107.847 290.960,102.760 285.300 C 99.287 281.435,97.706 280.549,98.186 282.735 M297.269 284.733 C 292.044 289.822,292.381 295.465,298.301 302.007 C 304.483 308.838,310.670 308.204,314.633 300.334 C 315.595 298.425,316.235 297.600,316.756 297.600 C 317.166 297.600,317.724 297.332,317.996 297.005 C 318.897 295.919,318.791 295.807,311.967 290.642 C 310.198 289.303,309.233 289.613,307.876 291.956 C 307.103 293.290,307.105 293.294,309.200 293.752 C 309.750 293.872,311.100 294.768,312.200 295.741 L 314.200 297.512 312.985 299.250 C 309.512 304.219,305.892 303.933,300.406 298.256 C 294.991 292.652,295.005 288.934,300.452 286.174 C 302.496 285.138,302.816 284.473,301.771 283.429 C 300.658 282.316,299.367 282.690,297.269 284.733 M136.779 284.867 C 136.501 286.644,136.705 294.032,137.036 294.159 C 137.724 294.422,138.539 293.740,138.295 293.104 C 137.738 291.653,138.801 291.389,139.905 292.704 C 140.507 293.421,141.225 294.006,141.500 294.004 C 142.100 293.999,142.162 293.348,141.597 292.998 C 140.358 292.233,139.918 290.339,140.769 289.433 C 141.714 288.427,141.817 288.000,141.115 288.000 C 140.848 288.000,140.234 288.495,139.751 289.100 C 138.637 290.494,138.255 290.101,138.002 287.300 C 137.849 285.606,136.945 283.807,136.779 284.867 M132.382 285.300 C 131.671 289.285,132.464 294.902,133.636 294.178 C 134.477 293.658,134.066 285.200,133.200 285.200 C 132.760 285.200,132.392 285.245,132.382 285.300 M162.000 285.600 C 162.000 285.820,162.338 286.000,162.751 286.000 C 164.149 286.000,164.491 286.987,164.341 290.587 C 164.239 293.050,164.338 294.044,164.700 294.183 C 165.977 294.673,166.201 294.025,166.063 290.235 C 165.920 286.325,166.225 285.673,168.009 286.086 C 168.279 286.149,168.583 285.975,168.683 285.700 C 168.821 285.325,168.011 285.200,165.433 285.200 C 163.411 285.200,162.000 285.364,162.000 285.600 M198.588 285.620 C 198.207 286.235,198.728 286.632,199.242 286.118 C 199.529 285.831,199.536 285.607,199.262 285.439 C 199.039 285.300,198.735 285.382,198.588 285.620 M208.188 285.620 C 207.807 286.235,208.328 286.632,208.842 286.118 C 209.129 285.831,209.136 285.607,208.862 285.439 C 208.639 285.300,208.335 285.382,208.188 285.620 M215.590 285.252 C 215.309 289.379,215.488 294.026,215.934 294.197 C 216.841 294.544,217.400 293.863,217.400 292.413 C 217.400 291.162,217.542 290.985,218.844 290.613 C 221.489 289.856,222.633 287.356,220.966 285.972 C 220.409 285.510,215.616 284.868,215.590 285.252 M247.439 285.538 C 247.300 285.761,247.382 286.065,247.620 286.212 C 248.235 286.593,248.632 286.072,248.118 285.558 C 247.831 285.271,247.607 285.264,247.439 285.538 M219.367 286.643 C 219.734 286.783,220.000 287.352,220.000 287.994 C 220.000 290.181,217.514 290.790,217.270 288.663 C 217.036 286.627,217.689 285.999,219.367 286.643 M101.911 288.105 C 106.925 293.443,100.447 300.263,95.100 295.276 C 93.466 293.752,93.700 293.139,97.100 290.034 C 100.547 286.886,100.706 286.822,101.911 288.105 M144.267 287.867 C 143.652 288.481,144.077 288.847,145.136 288.614 C 147.739 288.042,147.707 290.137,145.100 290.980 C 143.499 291.497,143.051 293.278,144.347 293.972 C 145.624 294.655,146.596 294.087,145.570 293.256 C 144.531 292.415,144.917 291.103,146.151 291.279 C 146.843 291.378,146.981 291.641,146.898 292.700 C 146.808 293.858,146.910 294.000,147.832 294.000 C 148.966 294.000,149.070 289.489,147.966 288.159 C 147.496 287.593,144.757 287.376,144.267 287.867 M151.285 290.994 C 151.439 295.285,152.491 295.658,152.800 291.532 C 153.123 287.221,154.836 287.153,155.200 291.437 C 155.353 293.235,155.561 293.823,156.079 293.922 C 156.684 294.037,156.732 293.733,156.524 291.125 C 156.239 287.572,156.454 287.813,153.557 287.800 L 151.171 287.789 151.285 290.994 M169.782 288.582 C 167.329 291.034,169.473 295.205,172.581 294.028 C 173.243 293.778,173.165 293.693,172.072 293.474 C 170.646 293.189,170.055 292.244,170.679 291.245 C 170.956 290.801,170.947 290.378,170.651 289.909 C 170.103 289.039,170.844 288.178,171.819 288.552 C 172.287 288.732,172.432 289.119,172.297 289.826 C 172.134 290.680,172.238 290.823,172.951 290.721 C 174.071 290.561,174.343 288.840,173.362 288.122 C 172.263 287.319,170.865 287.499,169.782 288.582 M176.349 288.000 C 176.103 288.906,176.279 293.857,176.564 294.063 C 177.446 294.701,177.859 293.909,177.700 291.883 C 177.494 289.260,178.330 287.785,179.416 288.854 C 179.815 289.248,180.073 290.124,180.063 291.054 C 180.041 293.110,180.332 294.000,181.027 294.000 C 181.701 294.000,181.849 289.411,181.207 288.400 C 180.849 287.835,176.491 287.476,176.349 288.000 M186.286 287.848 C 186.150 287.984,186.300 288.357,186.619 288.676 C 187.370 289.427,187.361 290.568,186.600 291.200 C 185.333 292.252,184.083 289.677,185.280 288.480 C 185.653 288.107,185.620 288.000,185.129 288.000 C 183.960 288.000,183.658 288.995,183.636 292.906 C 183.617 296.551,183.667 296.800,184.422 296.800 C 185.118 296.800,185.166 296.685,184.777 295.957 C 184.172 294.827,184.755 294.309,186.449 294.471 C 187.557 294.577,187.794 294.762,187.768 295.500 C 187.732 296.527,188.466 296.684,189.196 295.805 C 190.196 294.600,189.432 293.867,186.700 293.413 C 184.829 293.102,184.786 292.599,186.581 292.006 C 187.964 291.550,188.115 291.318,188.602 288.900 C 188.856 287.640,187.231 286.902,186.286 287.848 M193.200 287.829 C 193.200 287.954,193.470 288.327,193.800 288.657 C 195.050 289.907,193.922 292.297,192.600 291.200 C 191.879 290.602,191.815 289.145,192.480 288.480 C 192.853 288.107,192.820 288.000,192.329 288.000 C 191.227 288.000,190.828 288.975,190.848 291.624 C 190.858 293.041,190.746 294.680,190.598 295.267 C 190.391 296.089,190.509 296.430,191.112 296.753 C 192.053 297.257,192.567 296.883,191.952 296.142 C 191.125 295.145,191.870 294.341,193.497 294.476 C 194.787 294.582,194.986 294.728,194.905 295.500 C 194.783 296.650,195.811 296.701,196.414 295.574 C 197.042 294.401,196.358 293.744,194.163 293.415 C 192.307 293.137,191.893 292.314,193.490 292.078 C 194.649 291.906,195.453 290.855,195.767 289.100 L 196.036 287.600 194.618 287.600 C 193.838 287.600,193.200 287.703,193.200 287.829 M198.200 290.785 C 198.200 293.874,198.517 294.689,199.475 294.063 C 200.141 293.629,199.526 287.832,198.800 287.694 C 198.307 287.600,198.200 288.152,198.200 290.785 M202.239 288.000 C 201.857 288.895,202.680 294.200,203.200 294.200 C 203.651 294.200,203.850 293.556,204.000 291.600 C 204.178 289.280,204.297 288.986,205.100 288.872 C 205.595 288.802,206.000 288.515,206.000 288.234 C 206.000 287.743,202.443 287.522,202.239 288.000 M207.789 290.783 C 207.800 293.872,208.119 294.687,209.075 294.063 C 209.749 293.623,209.125 287.832,208.389 287.692 C 207.881 287.595,207.780 288.118,207.789 290.783 M223.452 287.978 C 223.058 288.865,223.870 294.200,224.400 294.200 C 224.851 294.200,225.050 293.556,225.200 291.600 C 225.380 289.259,225.492 288.987,226.323 288.869 C 227.868 288.650,227.059 287.843,225.249 287.798 C 224.315 287.774,223.507 287.855,223.452 287.978 M230.122 288.004 C 226.826 289.332,228.944 295.103,232.384 294.169 C 233.390 293.895,233.387 293.889,232.081 293.530 C 230.567 293.114,230.067 292.225,230.740 291.147 C 231.060 290.635,231.071 290.400,230.776 290.400 C 230.243 290.400,230.447 288.710,231.000 288.538 C 231.922 288.250,232.621 289.142,232.114 289.959 C 231.533 290.897,232.171 291.313,233.300 290.732 C 235.665 289.516,232.696 286.968,230.122 288.004 M235.960 288.000 C 235.687 289.365,235.896 294.028,236.236 294.158 C 237.103 294.491,237.475 293.763,237.441 291.800 C 237.392 289.043,237.754 288.240,238.794 288.797 C 239.461 289.154,239.600 289.632,239.600 291.571 C 239.600 293.212,239.768 293.979,240.161 294.130 C 241.030 294.463,241.200 294.046,241.200 291.582 C 241.200 290.105,241.399 289.133,241.764 288.830 C 242.648 288.096,243.600 289.801,243.600 292.118 C 243.600 293.722,243.717 294.036,244.274 293.929 C 245.036 293.782,245.101 288.965,244.352 288.200 C 243.964 287.804,236.037 287.615,235.960 288.000 M247.200 290.728 C 247.200 293.790,247.995 295.522,248.635 293.854 C 249.160 292.485,248.604 287.809,247.900 287.675 C 247.281 287.557,247.200 287.909,247.200 290.728 M251.169 287.764 C 250.070 288.864,251.843 294.670,253.133 294.196 C 253.426 294.088,254.288 294.000,255.050 294.000 L 256.434 294.000 256.317 290.900 C 256.156 286.642,255.100 286.412,254.800 290.569 C 254.498 294.745,252.918 294.449,252.447 290.127 C 252.229 288.134,251.727 287.206,251.169 287.764 M258.967 287.967 C 258.309 288.623,258.855 294.000,259.581 294.000 C 260.259 294.000,260.377 293.672,260.481 291.500 C 260.656 287.819,262.135 287.731,262.323 291.390 C 262.442 293.725,262.857 294.506,263.788 294.149 C 264.090 294.033,264.192 293.178,264.083 291.670 C 263.964 290.028,264.075 289.235,264.471 288.907 C 265.468 288.079,266.175 289.025,266.394 291.478 C 266.551 293.246,266.762 293.823,267.287 293.923 C 268.048 294.068,267.908 289.045,267.128 288.200 C 266.780 287.823,259.326 287.610,258.967 287.967 M278.400 301.967 C 276.520 303.601,276.511 304.208,278.361 304.466 C 279.426 304.614,287.793 315.764,287.363 316.460 C 287.122 316.851,281.527 314.002,274.477 309.899 L 270.353 307.499 268.952 308.250 C 266.424 309.603,265.686 311.200,267.588 311.200 C 268.400 311.200,269.425 312.727,274.778 321.910 C 277.898 327.262,278.066 327.664,277.453 328.341 C 276.559 329.329,276.634 330.000,277.637 330.000 C 278.540 330.000,282.800 327.612,282.800 327.107 C 282.800 326.938,282.835 326.665,282.877 326.500 C 282.920 326.335,282.426 326.108,281.780 325.997 C 280.777 325.823,280.098 324.986,277.103 320.226 C 272.418 312.781,272.430 312.750,278.572 316.382 C 287.260 321.519,290.441 322.587,292.327 321.000 C 294.031 319.566,294.360 320.245,287.565 311.166 C 281.916 303.619,281.546 303.015,281.783 301.751 C 282.143 299.831,280.755 299.920,278.400 301.967 M179.800 303.432 C 179.556 303.534,179.425 305.750,179.464 309.100 L 179.529 314.600 180.664 314.600 C 181.766 314.600,181.796 314.545,181.669 312.760 C 181.408 309.096,182.935 308.834,184.843 312.215 C 186.046 314.347,187.318 315.242,188.073 314.487 C 188.331 314.229,187.965 313.437,187.016 312.194 C 184.087 308.357,184.061 308.171,186.164 306.037 C 188.184 303.985,188.277 303.792,187.400 303.455 C 186.578 303.140,185.600 303.567,185.600 304.242 C 185.600 305.024,182.832 308.000,182.104 308.000 C 181.618 308.000,181.536 307.576,181.682 305.817 C 181.880 303.426,181.365 302.773,179.800 303.432 M191.000 303.427 C 190.580 303.609,190.517 314.251,190.934 314.667 C 191.977 315.710,193.009 314.339,193.005 311.916 L 193.000 309.400 195.200 309.400 L 197.400 309.400 197.400 312.000 C 197.400 314.589,197.405 314.600,198.536 314.600 L 199.671 314.600 199.736 309.095 C 199.791 304.351,199.711 303.562,199.156 303.386 C 197.839 302.968,197.164 303.603,197.429 305.012 C 197.890 307.471,197.415 308.056,195.067 307.920 L 193.000 307.800 192.800 305.603 C 192.606 303.468,192.158 302.926,191.000 303.427 M205.855 304.100 C 205.545 304.595,204.707 306.800,203.992 309.000 C 203.278 311.200,202.504 313.239,202.272 313.530 C 201.968 313.914,202.011 314.163,202.426 314.430 C 203.483 315.109,204.181 314.631,204.438 313.054 C 204.977 309.736,208.476 309.920,209.167 313.302 C 209.395 314.414,209.603 314.600,210.616 314.600 C 212.089 314.600,212.089 314.595,209.967 308.800 C 207.770 302.799,207.129 302.066,205.855 304.100 M215.360 303.771 C 212.385 305.066,213.172 308.243,216.800 309.590 C 220.891 311.109,220.260 313.894,215.939 313.393 C 214.622 313.240,213.600 313.278,213.600 313.481 C 213.600 315.395,219.761 315.141,220.808 313.184 C 221.981 310.992,221.214 309.652,217.842 308.000 C 214.532 306.379,214.922 304.122,218.429 304.604 C 220.468 304.884,221.369 304.333,220.037 303.620 C 218.971 303.049,216.862 303.117,215.360 303.771 M115.970 308.251 C 107.258 314.817,105.439 316.000,104.046 316.000 C 101.661 316.000,102.286 317.227,105.975 319.783 C 107.777 321.031,108.559 320.835,108.205 319.225 C 107.953 318.076,110.738 315.200,112.102 315.200 C 112.675 315.200,117.177 318.227,117.661 318.937 C 118.389 320.007,116.371 324.400,115.151 324.400 C 113.166 324.400,115.120 326.564,118.754 328.390 C 120.729 329.382,121.452 328.990,120.697 327.334 C 120.183 326.205,121.170 321.432,123.849 312.097 C 125.831 305.188,125.904 304.591,124.826 304.014 C 123.152 303.118,122.132 303.606,115.970 308.251 M207.616 307.848 C 208.005 309.026,207.992 309.361,207.547 309.647 C 206.109 310.573,205.065 308.947,205.989 307.221 C 206.625 306.033,207.074 306.206,207.616 307.848 M120.171 312.490 C 118.892 316.494,118.616 316.649,116.060 314.797 C 113.885 313.222,113.871 313.259,117.700 310.166 C 121.634 306.989,121.861 307.202,120.171 312.490 M140.662 314.271 C 140.513 314.421,140.500 315.128,140.634 315.843 C 140.837 316.923,140.293 318.376,137.403 324.471 C 133.173 333.390,133.044 333.600,131.791 333.600 C 129.638 333.600,130.652 335.005,133.900 336.523 C 142.551 340.569,144.515 341.063,145.278 339.389 C 145.912 337.996,145.462 337.663,141.968 336.940 C 135.763 335.655,135.835 336.250,140.612 325.739 C 144.576 317.018,144.017 317.843,146.100 317.631 C 147.273 317.511,146.036 316.185,143.809 315.175 C 140.918 313.864,141.035 313.898,140.662 314.271 M248.986 318.008 C 247.199 318.672,247.098 319.183,247.550 325.285 C 248.512 338.282,248.536 340.246,247.754 341.570 C 246.650 343.440,247.359 343.736,250.499 342.715 C 252.886 341.939,254.278 340.826,253.280 340.493 C 251.811 340.004,251.411 339.213,251.405 336.796 L 251.400 334.320 254.400 333.123 L 257.400 331.927 259.109 333.812 C 260.621 335.479,260.789 335.853,260.564 337.049 C 260.229 338.835,261.077 338.848,264.604 337.108 C 267.456 335.702,267.815 334.862,265.788 334.337 C 264.562 334.019,260.604 329.842,253.857 321.745 C 250.583 317.815,250.231 317.545,248.986 318.008 M161.600 322.976 C 161.600 323.293,161.780 323.664,162.000 323.800 C 162.721 324.246,162.430 325.753,160.000 334.167 C 157.302 343.507,157.425 343.200,156.400 343.200 C 155.468 343.200,154.969 343.929,155.522 344.482 C 156.170 345.130,168.442 348.038,170.000 347.913 C 171.256 347.812,171.413 347.668,171.524 346.514 C 171.671 344.996,171.514 344.940,166.400 344.662 C 161.038 344.372,160.971 344.275,162.381 338.846 C 163.378 335.005,163.303 335.052,167.028 335.942 C 169.114 336.440,170.440 336.575,170.900 336.335 C 172.493 335.508,171.460 334.663,167.824 333.820 C 163.709 332.866,163.749 332.956,165.225 328.000 C 166.063 325.187,166.315 325.155,170.878 327.284 C 173.705 328.603,174.467 328.517,174.908 326.831 C 175.250 325.521,174.657 325.224,168.853 323.799 C 162.516 322.243,161.600 322.139,161.600 322.976 M253.202 326.268 C 255.889 329.675,255.928 329.909,253.971 330.881 C 250.900 332.406,250.591 332.078,250.183 326.857 C 249.827 322.308,250.046 322.265,253.202 326.268 M220.640 325.829 C 216.798 326.475,216.308 326.852,217.667 328.112 C 218.777 329.140,218.735 328.950,220.210 339.672 L 221.209 346.938 220.330 347.874 C 218.387 349.942,223.247 349.971,229.907 347.932 C 236.869 345.799,238.102 339.626,232.100 336.947 C 229.707 335.880,229.619 335.559,231.000 332.962 C 234.210 326.925,230.267 324.210,220.640 325.829 M185.750 327.386 C 185.614 327.742,185.809 328.368,186.187 328.786 C 186.834 329.500,186.814 330.027,185.821 338.377 C 184.647 348.244,184.648 348.242,183.572 348.523 C 181.108 349.167,183.275 350.386,186.900 350.395 C 189.354 350.400,189.714 350.031,188.530 348.722 C 187.917 348.045,187.900 347.389,188.337 341.103 C 188.791 334.576,189.286 332.273,189.769 334.442 C 189.886 334.969,190.420 337.380,190.954 339.800 C 192.508 346.834,193.196 348.576,194.480 348.725 C 196.898 349.004,197.250 348.325,200.408 337.289 C 200.866 335.688,201.411 334.483,201.620 334.613 C 202.306 335.036,202.101 348.618,201.400 349.200 C 199.705 350.606,201.322 351.409,205.046 351.010 C 207.814 350.713,208.304 350.114,206.801 348.864 C 206.105 348.286,205.951 347.427,205.609 342.200 C 204.740 328.945,204.731 330.096,205.713 329.176 C 207.017 327.953,205.923 327.253,203.103 327.505 C 200.438 327.744,200.728 327.292,199.196 333.600 C 196.913 342.998,196.047 345.250,195.386 343.500 C 195.075 342.676,193.207 334.439,192.531 330.911 C 191.837 327.290,191.981 327.423,188.299 327.004 C 186.393 326.787,185.955 326.853,185.750 327.386 M226.982 328.248 C 229.559 329.237,229.283 333.905,226.581 335.034 C 223.440 336.346,222.557 335.718,222.165 331.889 C 221.795 328.282,223.571 326.940,226.982 328.248 M230.418 338.700 C 233.934 341.841,231.397 346.408,226.400 345.933 C 224.894 345.790,224.481 344.878,223.769 340.136 C 223.357 337.388,227.861 336.415,230.418 338.700  M -25 0 L -5 0 L -5 20 L -25 20 Z M 405 0 L 425 0 L 425 20 L 405 20 Z" stroke="none" fill="#af9c49" fill-rule="evenodd" transform="translate(30,0)"></path><path id="path1" d="M190.000 8.832 C 73.075 15.121,-10.330 123.437,13.417 238.155 C 29.470 315.705,94.143 376.405,172.400 387.371 C 284.531 403.083,384.996 319.844,389.954 207.119 C 394.874 95.235,301.687 2.824,190.000 8.832 M222.281 17.562 C 314.014 29.437,381.988 106.575,381.988 198.800 C 381.988 311.314,280.798 397.315,170.244 378.760 C 68.403 361.668,1.321 263.271,22.060 161.400 C 37.502 85.545,101.364 26.763,178.276 17.610 C 190.639 16.139,211.117 16.116,222.281 17.562 M191.600 20.418 C 95.193 25.925,21.092 103.350,21.067 198.600 C 21.035 315.187,131.043 400.319,244.662 371.635 C 334.158 349.040,392.096 260.271,376.785 169.200 C 361.888 80.590,280.662 15.331,191.600 20.418 M201.200 48.111 C 201.200 48.392,200.816 48.951,200.347 49.352 C 199.587 50.003,199.523 50.349,199.752 52.541 C 199.893 53.894,200.285 57.970,200.621 61.600 C 201.209 67.935,201.277 68.236,202.309 69.088 C 203.897 70.401,203.037 70.965,199.182 71.140 C 195.849 71.292,194.935 70.667,196.652 69.411 C 197.348 68.902,196.770 56.211,195.987 54.800 C 195.564 54.038,195.668 53.731,193.613 61.800 C 191.866 68.661,191.330 69.600,189.165 69.600 C 187.753 69.600,187.431 69.119,185.023 63.400 C 184.003 60.980,182.737 58.100,182.209 57.000 L 181.249 55.000 181.245 58.000 C 181.236 64.720,181.851 69.736,182.758 70.339 C 184.886 71.751,181.900 72.906,177.300 72.450 C 176.492 72.369,176.727 71.267,177.658 70.769 C 178.504 70.316,178.512 70.205,178.241 62.855 C 177.855 52.404,177.711 51.379,176.558 50.853 C 174.336 49.841,176.500 48.800,180.826 48.800 C 183.631 48.800,183.135 48.087,186.670 57.200 C 190.470 66.996,190.260 67.085,192.834 54.600 C 193.627 50.755,194.302 48.420,194.712 48.100 C 195.601 47.406,201.200 47.416,201.200 48.111 M219.497 49.024 C 227.164 50.162,229.531 51.655,229.909 55.591 C 230.394 60.646,227.442 63.311,221.035 63.600 L 216.605 63.800 216.350 65.000 C 215.863 67.290,215.963 70.400,216.524 70.400 C 217.556 70.400,218.641 71.504,218.125 72.029 C 217.490 72.672,210.452 71.810,209.621 70.987 C 209.117 70.487,209.207 70.356,210.323 69.967 C 211.842 69.437,211.735 69.811,213.006 60.600 C 214.236 51.688,214.256 50.565,213.200 50.000 C 210.344 48.471,213.002 48.059,219.497 49.024 M218.444 52.147 C 217.843 52.871,216.839 60.216,217.250 60.881 C 217.912 61.952,223.029 61.553,224.246 60.336 C 225.690 58.892,225.982 55.937,224.859 54.150 C 223.672 52.263,219.443 50.943,218.444 52.147 M165.186 52.774 C 166.001 54.298,164.986 55.200,162.455 55.200 C 160.395 55.200,156.032 56.209,155.411 56.830 C 155.158 57.082,155.304 58.306,155.825 60.309 C 156.777 63.974,157.150 64.142,161.416 62.824 C 164.641 61.828,165.546 61.794,165.878 62.658 C 166.242 63.608,165.274 64.159,161.425 65.193 C 157.383 66.279,157.411 66.228,158.634 70.438 C 160.082 75.416,161.168 75.608,168.132 72.122 C 170.275 71.048,171.200 71.318,171.200 73.016 C 171.200 74.113,170.387 74.449,162.080 76.789 C 154.805 78.838,153.563 78.829,155.451 76.744 C 156.055 76.076,155.982 75.592,154.419 69.912 C 151.118 57.925,150.995 57.600,149.751 57.600 C 149.002 57.600,148.180 56.048,148.900 55.992 C 148.955 55.988,152.060 55.099,155.800 54.017 C 163.458 51.801,164.585 51.652,165.186 52.774 M247.967 55.385 C 255.673 57.793,256.240 58.115,255.626 59.731 C 255.101 61.113,254.966 61.097,251.005 59.179 C 249.163 58.288,247.035 57.458,246.276 57.335 L 244.895 57.111 243.818 60.346 C 242.551 64.150,242.568 64.196,245.520 65.045 C 249.466 66.180,250.800 66.831,250.800 67.620 C 250.800 68.855,250.128 68.887,246.642 67.824 C 241.514 66.260,241.147 66.563,239.758 73.508 C 239.430 75.148,243.177 76.748,248.600 77.282 C 250.897 77.508,250.328 79.823,248.000 79.722 C 243.417 79.524,229.865 74.000,233.961 74.000 C 235.198 74.000,235.716 72.881,238.365 64.482 C 241.042 55.996,241.083 55.775,240.161 54.757 C 239.499 54.025,239.692 53.197,240.524 53.204 C 240.786 53.206,244.135 54.188,247.967 55.385 M139.386 62.169 C 145.453 64.703,144.100 73.077,137.017 76.835 C 134.864 77.977,134.831 78.272,136.511 81.400 C 137.768 83.741,137.837 83.797,139.300 83.669 C 140.451 83.568,140.800 83.683,140.800 84.165 C 140.800 84.876,133.803 88.573,133.183 88.189 C 132.619 87.841,132.716 87.156,133.441 86.354 C 134.527 85.154,126.296 68.211,124.730 68.423 C 121.507 68.860,122.958 67.267,127.900 64.944 C 134.702 61.746,137.029 61.184,139.386 62.169 M269.900 64.019 C 273.034 65.757,273.562 66.673,271.547 66.875 C 269.689 67.061,265.251 74.800,267.003 74.800 C 269.438 74.800,277.600 71.072,277.600 69.960 C 277.600 68.437,278.283 68.462,281.249 70.092 C 284.087 71.652,284.440 72.786,282.100 72.824 C 281.275 72.837,278.620 73.522,276.200 74.345 L 271.800 75.842 271.912 79.621 C 272.059 84.607,272.657 88.962,273.388 90.376 C 274.363 92.262,273.258 92.842,270.987 91.637 C 268.688 90.417,268.400 89.449,268.400 82.928 C 268.400 76.782,268.266 76.557,265.514 78.062 C 263.280 79.285,261.098 83.104,261.900 84.388 C 263.206 86.480,261.869 86.518,258.165 84.493 C 255.002 82.764,254.337 81.600,256.513 81.600 C 258.778 81.600,267.096 66.093,265.911 64.082 C 264.601 61.860,265.968 61.838,269.900 64.019 M131.700 66.012 C 129.595 66.947,129.596 67.074,131.777 71.772 C 133.678 75.867,133.767 75.939,135.720 74.955 C 142.885 71.346,139.024 62.757,131.700 66.012 M218.097 98.048 C 221.732 99.462,224.935 102.080,227.703 105.900 C 228.381 106.835,229.220 107.604,229.568 107.609 C 244.477 107.820,260.240 110.715,268.188 114.700 C 277.153 119.196,277.460 119.834,273.067 124.859 C 265.022 134.060,256.631 138.666,241.800 142.021 C 234.933 143.574,235.244 143.407,232.631 146.941 C 228.615 152.372,224.053 155.600,220.395 155.600 C 218.943 155.600,218.479 154.758,217.200 149.800 C 216.019 145.221,216.154 145.358,212.497 145.045 C 206.062 144.494,199.224 143.492,194.206 142.366 C 187.334 140.823,187.596 140.789,183.231 143.800 C 178.857 146.817,178.278 146.909,174.599 145.170 C 169.672 142.842,166.189 139.272,165.177 135.513 C 164.645 133.539,161.834 132.251,161.000 133.600 C 160.507 134.397,159.214 133.988,158.625 132.848 C 157.693 131.047,155.983 130.692,153.967 131.883 C 152.811 132.566,152.808 132.565,151.451 131.083 C 149.829 129.313,149.146 129.251,147.074 130.688 L 145.504 131.775 144.637 130.688 C 142.844 128.439,141.836 128.968,137.881 134.231 C 132.202 141.788,124.798 146.638,122.480 144.320 C 121.305 143.145,122.798 138.150,127.419 127.800 C 128.852 124.590,128.857 124.627,126.021 118.079 C 121.726 108.164,121.196 105.949,122.933 105.158 C 125.973 103.773,131.556 107.935,137.981 116.375 C 139.331 118.149,140.653 119.621,140.918 119.646 C 142.338 119.782,143.122 119.418,144.277 118.087 L 145.554 116.616 146.677 117.435 C 148.992 119.124,150.738 118.881,151.621 116.748 C 152.188 115.381,152.844 115.315,154.665 116.440 C 156.426 117.528,157.679 117.209,158.745 115.403 C 159.706 113.775,159.937 113.721,161.309 114.800 C 162.672 115.872,162.521 115.886,174.076 113.576 C 179.644 112.463,189.821 110.696,196.691 109.651 C 203.562 108.606,209.268 107.665,209.373 107.560 C 209.477 107.456,209.767 105.667,210.016 103.585 C 210.835 96.741,212.250 95.772,218.097 98.048 M213.396 102.902 C 213.248 104.278,213.189 105.943,213.264 106.602 L 213.400 107.800 218.504 107.776 C 224.980 107.745,225.312 107.497,222.456 104.816 C 217.423 100.091,213.779 99.321,213.396 102.902 M127.015 110.846 C 127.174 111.350,128.402 114.200,129.743 117.181 C 132.898 124.194,132.906 124.796,129.924 131.600 C 126.570 139.255,126.307 140.000,126.959 140.000 C 127.774 140.000,133.953 133.752,135.768 131.093 L 137.335 128.797 136.392 126.784 C 135.570 125.028,135.510 124.603,135.925 123.457 C 136.688 121.347,136.507 120.634,134.530 117.944 C 130.972 113.104,126.344 108.734,127.015 110.846 M212.489 111.823 C 211.326 112.637,211.364 113.638,212.600 114.800 C 213.150 115.317,213.600 116.186,213.600 116.732 C 213.600 117.278,213.150 118.314,212.600 119.036 C 211.362 120.659,211.362 120.814,212.614 122.659 C 214.837 125.935,212.809 126.535,209.497 123.583 C 206.801 121.180,206.766 120.995,208.600 118.800 C 209.370 117.878,210.000 117.028,210.000 116.911 C 210.000 116.793,209.370 116.000,208.600 115.147 C 207.787 114.248,207.200 113.179,207.200 112.599 C 207.200 111.732,207.022 111.600,205.860 111.600 C 202.409 111.600,201.107 113.022,202.962 114.765 C 204.417 116.131,204.460 116.998,203.161 118.790 C 201.779 120.698,201.729 121.231,202.837 122.234 C 206.049 125.141,203.729 126.787,200.376 123.980 C 198.104 122.077,197.695 121.130,198.567 119.780 C 200.549 116.711,200.511 117.153,198.983 115.004 C 197.362 112.724,196.902 112.375,195.803 112.592 C 192.298 113.282,192.273 113.313,193.800 115.127 C 195.077 116.645,195.060 116.908,193.544 119.019 C 192.163 120.941,192.100 120.535,194.246 123.500 C 194.772 124.227,194.802 124.516,194.400 125.000 C 193.647 125.908,193.089 125.747,190.874 123.983 C 188.184 121.841,188.009 121.156,189.589 118.956 C 191.185 116.732,191.049 116.028,188.800 114.887 C 185.987 113.459,183.902 114.231,184.788 116.371 C 185.251 117.488,185.187 117.750,184.004 119.593 L 182.717 121.600 183.980 123.039 C 186.706 126.143,184.195 127.075,180.900 124.182 C 178.472 122.050,178.361 121.462,180.000 119.400 C 182.742 115.950,179.201 114.507,175.765 117.675 C 173.041 120.185,172.924 120.580,174.398 122.259 C 177.147 125.390,174.934 126.662,171.542 123.901 C 169.188 121.985,168.804 120.977,169.829 119.411 C 170.677 118.118,170.412 117.834,168.663 118.162 C 165.205 118.811,163.431 121.008,164.929 122.788 C 166.303 124.421,166.200 126.400,164.741 126.400 C 163.813 126.400,159.600 122.290,159.600 121.385 C 159.600 120.056,159.392 120.071,149.091 122.177 C 140.348 123.964,139.600 124.169,139.600 124.781 C 139.600 125.385,140.900 125.634,146.986 126.198 C 153.369 126.790,154.901 127.161,167.600 131.190 C 199.440 141.293,197.835 140.963,215.200 140.984 C 229.767 141.001,232.525 140.764,241.296 138.741 C 245.528 137.765,245.695 137.566,243.407 136.225 C 240.917 134.766,238.923 132.610,237.545 129.885 L 236.373 127.569 233.286 127.885 C 224.757 128.756,222.243 128.071,217.526 123.589 C 214.313 120.536,214.398 119.360,217.900 118.424 C 219.963 117.872,219.998 117.537,218.200 115.547 C 216.785 113.981,216.469 113.052,217.200 112.600 C 217.420 112.464,217.600 112.093,217.600 111.776 C 217.600 110.958,213.673 110.993,212.489 111.823 M222.789 111.877 C 220.705 113.303,220.732 113.655,223.100 115.839 C 226.235 118.732,229.893 118.895,227.633 116.042 C 226.396 114.480,226.053 113.062,226.800 112.600 C 227.020 112.464,227.200 112.093,227.200 111.776 C 227.200 110.948,224.041 111.020,222.789 111.877 M231.900 112.046 C 230.328 113.219,230.518 114.249,232.659 116.150 C 236.848 119.870,239.882 119.766,237.150 115.995 C 236.379 114.931,235.987 113.950,236.059 113.266 C 236.288 111.082,234.066 110.430,231.900 112.046 M240.700 112.687 C 239.731 113.762,239.817 114.215,241.176 115.183 C 242.895 116.407,242.964 117.182,241.610 120.044 C 236.830 130.149,246.719 138.280,257.400 133.029 C 261.251 131.135,269.283 124.187,270.941 121.314 C 272.725 118.225,243.281 109.825,240.700 112.687 M258.869 118.662 C 259.758 119.467,259.836 121.706,258.999 122.401 C 257.419 123.712,255.200 122.645,255.200 120.574 C 255.200 118.427,257.363 117.300,258.869 118.662 M221.522 121.501 C 219.786 121.883,223.182 124.462,226.090 124.972 C 229.131 125.504,236.400 124.132,236.400 123.025 C 236.400 121.979,224.767 120.788,221.522 121.501 M169.200 136.353 C 169.200 137.714,176.247 143.200,177.995 143.200 C 178.972 143.200,182.361 140.824,182.384 140.124 C 182.407 139.424,182.082 139.286,175.875 137.368 C 169.386 135.362,169.200 135.334,169.200 136.353 M222.079 144.696 C 219.489 144.876,219.337 145.185,220.227 148.467 C 221.451 152.975,222.201 152.992,226.652 148.613 C 231.048 144.288,230.814 144.088,222.079 144.696 M94.982 174.900 C 95.280 175.615,96.606 179.350,97.928 183.200 C 106.916 209.363,110.002 217.835,110.774 218.459 C 112.856 220.145,111.838 220.400,103.016 220.400 C 95.109 220.400,93.928 220.113,95.601 218.599 C 96.597 217.698,96.637 215.822,95.723 212.924 C 94.897 210.302,95.010 210.337,87.800 210.485 L 82.200 210.600 81.435 212.168 C 80.185 214.727,80.103 217.432,81.237 218.639 C 82.698 220.195,81.787 220.491,76.428 220.204 C 71.031 219.915,70.829 219.832,72.142 218.456 C 72.696 217.875,73.360 216.860,73.617 216.200 C 74.094 214.978,80.946 195.089,85.261 182.400 C 88.366 173.269,88.127 173.600,91.630 173.600 C 94.423 173.600,94.444 173.608,94.982 174.900 M343.100 174.100 C 343.318 174.375,346.839 184.208,350.924 195.952 C 356.596 212.261,358.601 217.566,359.415 218.416 C 361.081 220.154,360.095 220.400,351.450 220.400 C 343.528 220.400,343.018 220.266,344.374 218.542 C 345.502 217.108,345.197 214.185,343.612 211.222 C 343.074 210.218,331.268 209.928,330.506 210.900 C 328.935 212.902,328.432 217.232,329.631 218.431 C 331.092 219.892,330.379 220.400,326.868 220.400 C 320.342 220.400,319.165 219.925,320.968 218.022 C 321.654 217.299,323.824 211.504,328.391 198.200 C 336.468 174.669,336.456 174.704,336.917 174.100 C 337.155 173.787,338.308 173.600,340.000 173.600 C 341.683 173.600,342.852 173.789,343.100 174.100 M67.020 174.833 C 67.167 175.070,66.773 175.802,66.144 176.458 L 65.000 177.651 64.781 194.126 C 64.541 212.146,64.555 212.038,62.000 215.983 C 57.335 223.189,42.592 222.778,38.954 215.341 C 36.733 210.802,39.267 206.800,44.361 206.800 C 48.132 206.800,51.340 209.590,49.411 211.191 C 48.050 212.320,48.194 215.754,49.620 216.206 C 52.635 217.163,52.800 216.153,52.800 196.790 C 52.800 178.331,52.788 178.178,51.166 176.362 C 50.539 175.659,50.120 174.930,50.236 174.742 C 50.558 174.221,66.696 174.308,67.020 174.833 M131.199 174.799 C 131.609 175.019,134.882 179.543,138.473 184.854 C 148.425 199.574,147.723 199.365,147.532 187.545 C 147.388 178.640,147.060 176.892,145.415 176.261 C 144.465 175.897,144.688 174.843,145.771 174.571 C 147.043 174.252,155.452 174.516,155.821 174.887 C 156.040 175.107,154.925 176.669,153.516 178.114 C 153.470 178.161,153.335 187.560,153.216 199.000 L 153.000 219.800 150.465 219.920 C 147.162 220.076,148.246 221.336,136.519 203.713 C 130.915 195.291,126.165 188.400,125.965 188.400 C 125.764 188.400,125.591 189.795,125.580 191.500 C 125.417 216.652,125.468 217.473,127.232 218.417 C 129.382 219.568,128.125 220.000,122.624 220.000 C 116.837 220.000,116.291 219.817,117.813 218.388 C 119.489 216.814,119.595 215.494,119.598 196.314 L 119.600 178.028 118.330 176.581 C 117.298 175.406,117.166 175.066,117.630 174.773 C 118.410 174.280,130.270 174.302,131.199 174.799 M193.495 174.900 C 193.931 175.455,195.029 187.505,194.676 187.858 C 194.246 188.287,193.656 187.570,192.075 184.698 C 189.366 179.777,188.361 179.200,182.506 179.200 C 176.848 179.200,177.200 178.652,177.200 187.466 C 177.200 195.930,177.183 195.894,180.975 195.420 C 183.669 195.084,185.250 194.089,187.031 191.610 C 189.152 188.658,189.200 188.799,189.200 198.000 C 189.200 206.689,188.895 208.089,187.566 205.500 C 186.066 202.578,183.317 200.800,180.300 200.800 C 177.214 200.800,177.200 200.832,177.200 208.051 C 177.200 216.005,176.876 215.600,183.241 215.600 C 190.035 215.600,191.368 214.828,194.403 209.133 C 196.513 205.176,196.736 205.950,195.960 214.531 C 195.369 221.062,197.290 220.400,178.938 220.400 C 161.830 220.400,161.599 220.368,163.499 218.280 C 165.189 216.423,165.200 216.288,165.200 197.613 C 165.200 178.188,165.135 177.519,163.084 175.903 C 162.328 175.307,162.287 175.149,162.800 174.809 C 163.751 174.180,192.998 174.267,193.495 174.900 M272.240 174.961 C 272.689 176.129,273.428 185.229,273.113 185.704 C 272.755 186.243,272.362 185.843,270.258 182.805 C 268.428 180.162,266.553 179.149,263.403 179.101 C 259.796 179.046,260.012 177.867,260.015 197.600 C 260.018 216.220,260.102 217.066,262.132 218.745 C 263.428 219.817,262.240 220.000,253.976 220.000 C 244.874 220.000,244.725 219.957,246.700 217.896 L 247.800 216.748 247.800 198.081 L 247.800 179.414 246.200 179.146 C 242.178 178.472,237.200 181.582,237.200 184.770 C 237.200 185.870,237.073 186.000,236.000 186.000 C 234.956 186.000,234.800 185.856,234.800 184.893 C 234.800 181.766,231.402 179.200,227.260 179.200 C 223.642 179.200,223.942 177.371,224.083 198.632 L 224.200 216.263 225.300 217.705 C 227.073 220.028,227.163 220.000,218.000 220.000 C 208.872 220.000,208.724 219.957,210.700 217.896 L 211.800 216.748 211.915 198.310 C 211.979 188.138,211.874 179.714,211.681 179.521 C 209.678 177.518,203.912 179.780,201.213 183.628 C 199.236 186.447,198.799 186.568,198.803 184.300 C 198.807 182.389,199.515 175.669,199.794 174.900 C 200.079 174.113,271.938 174.173,272.240 174.961 M302.600 175.381 C 317.605 179.669,320.313 193.903,307.300 200.087 C 304.176 201.572,304.165 201.594,305.582 203.377 C 306.226 204.187,307.058 205.784,307.431 206.925 C 308.436 209.993,309.806 212.545,311.198 213.936 C 312.301 215.039,313.157 215.360,315.995 215.731 C 318.073 216.003,315.632 219.420,312.200 221.045 C 305.684 224.131,300.694 221.245,297.808 212.723 C 295.539 206.022,293.605 203.200,291.284 203.200 C 289.241 203.200,289.661 215.767,291.778 217.977 C 293.665 219.947,293.473 220.000,284.400 220.000 C 275.272 220.000,275.124 219.957,277.100 217.896 L 278.200 216.748 278.319 198.474 C 278.448 178.596,278.410 177.973,276.973 176.537 C 274.760 174.324,274.866 174.304,288.100 174.508 C 297.915 174.660,300.653 174.825,302.600 175.381 M290.507 179.849 C 290.338 180.262,290.200 184.350,290.200 188.932 C 290.200 198.624,290.185 198.586,293.781 198.176 C 304.156 196.991,307.757 184.925,299.070 180.454 C 296.421 179.091,290.974 178.706,290.507 179.849 M86.044 198.063 C 83.724 205.008,83.712 204.944,87.309 205.053 C 93.589 205.242,93.469 205.487,90.882 197.820 C 88.485 190.713,88.500 190.712,86.044 198.063 M336.590 192.415 C 336.120 193.176,332.800 203.356,332.800 204.037 C 332.800 205.120,336.049 205.547,339.700 204.943 C 341.658 204.620,341.645 204.336,339.367 197.500 C 337.625 192.273,337.181 191.460,336.590 192.415 M274.600 240.600 L 274.600 242.200 199.800 242.200 L 125.000 242.200 124.870 241.066 C 124.799 240.443,124.835 239.686,124.950 239.386 C 125.127 238.926,137.019 238.852,199.880 238.920 L 274.600 239.000 274.600 240.600 M258.655 254.279 C 259.284 256.782,263.900 256.600,199.800 256.600 C 135.723 256.600,140.317 256.780,140.942 254.288 L 141.202 253.253 199.798 253.243 L 258.393 253.234 258.655 254.279 M241.062 269.368 C 241.704 269.615,241.785 271.838,241.166 272.221 C 240.614 272.562,159.363 272.548,158.810 272.206 C 158.064 271.745,158.333 269.599,159.176 269.287 C 160.046 268.965,240.219 269.045,241.062 269.368 M102.760 285.300 C 107.847 290.960,108.534 292.936,106.578 296.274 C 103.766 301.071,99.038 301.401,93.928 297.155 C 91.588 295.211,91.581 295.211,89.183 297.455 C 87.288 299.227,86.735 300.466,87.600 301.000 C 88.207 301.375,88.078 302.800,87.437 302.800 C 86.628 302.800,81.600 297.246,81.600 296.351 C 81.600 295.561,82.577 295.316,83.000 296.000 C 83.527 296.853,84.533 296.273,88.651 292.738 C 96.913 285.645,98.467 284.015,98.186 282.735 C 97.706 280.549,99.287 281.435,102.760 285.300 M301.771 283.429 C 302.816 284.473,302.496 285.138,300.452 286.174 C 295.005 288.934,294.991 292.652,300.406 298.256 C 305.892 303.933,309.512 304.219,312.985 299.250 L 314.200 297.512 312.200 295.741 C 311.100 294.768,309.750 293.872,309.200 293.752 C 307.105 293.294,307.103 293.290,307.876 291.956 C 309.233 289.613,310.198 289.303,311.967 290.642 C 318.791 295.807,318.897 295.919,317.996 297.005 C 317.724 297.332,317.166 297.600,316.756 297.600 C 316.235 297.600,315.595 298.425,314.633 300.334 C 310.670 308.204,304.483 308.838,298.301 302.007 C 292.381 295.465,292.044 289.822,297.269 284.733 C 299.367 282.690,300.658 282.316,301.771 283.429 M138.002 287.300 C 138.255 290.101,138.637 290.494,139.751 289.100 C 140.234 288.495,140.848 288.000,141.115 288.000 C 141.817 288.000,141.714 288.427,140.769 289.433 C 139.918 290.339,140.358 292.233,141.597 292.998 C 142.162 293.348,142.100 293.999,141.500 294.004 C 141.225 294.006,140.507 293.421,139.905 292.704 C 138.801 291.389,137.738 291.653,138.295 293.104 C 138.539 293.740,137.724 294.422,137.036 294.159 C 136.705 294.032,136.501 286.644,136.779 284.867 C 136.945 283.807,137.849 285.606,138.002 287.300 M134.000 289.576 C 134.000 293.880,133.802 294.606,132.736 294.197 C 132.311 294.034,132.040 287.216,132.382 285.300 C 132.392 285.245,132.760 285.200,133.200 285.200 C 133.951 285.200,134.000 285.467,134.000 289.576 M168.683 285.700 C 168.583 285.975,168.279 286.149,168.009 286.086 C 166.225 285.673,165.920 286.325,166.063 290.235 C 166.201 294.025,165.977 294.673,164.700 294.183 C 164.338 294.044,164.239 293.050,164.341 290.587 C 164.491 286.987,164.149 286.000,162.751 286.000 C 162.338 286.000,162.000 285.820,162.000 285.600 C 162.000 285.364,163.411 285.200,165.433 285.200 C 168.011 285.200,168.821 285.325,168.683 285.700 M199.242 286.118 C 198.728 286.632,198.207 286.235,198.588 285.620 C 198.735 285.382,199.039 285.300,199.262 285.439 C 199.536 285.607,199.529 285.831,199.242 286.118 M208.842 286.118 C 208.328 286.632,207.807 286.235,208.188 285.620 C 208.335 285.382,208.639 285.300,208.862 285.439 C 209.136 285.607,209.129 285.831,208.842 286.118 M220.966 285.972 C 222.633 287.356,221.489 289.856,218.844 290.613 C 217.542 290.985,217.400 291.162,217.400 292.413 C 217.400 293.863,216.841 294.544,215.934 294.197 C 215.488 294.026,215.309 289.379,215.590 285.252 C 215.616 284.868,220.409 285.510,220.966 285.972 M248.300 286.233 C 247.919 286.615,247.155 285.997,247.439 285.538 C 247.607 285.264,247.831 285.271,248.118 285.558 C 248.354 285.794,248.436 286.098,248.300 286.233 M217.358 286.966 C 217.238 287.278,217.199 288.041,217.270 288.663 C 217.514 290.790,220.000 290.181,220.000 287.994 C 220.000 286.510,217.853 285.675,217.358 286.966 M97.100 290.034 C 93.700 293.139,93.466 293.752,95.100 295.276 C 100.447 300.263,106.925 293.443,101.911 288.105 C 100.706 286.822,100.547 286.886,97.100 290.034 M147.966 288.159 C 149.070 289.489,148.966 294.000,147.832 294.000 C 146.910 294.000,146.808 293.858,146.898 292.700 C 146.981 291.641,146.843 291.378,146.151 291.279 C 144.917 291.103,144.531 292.415,145.570 293.256 C 146.596 294.087,145.624 294.655,144.347 293.972 C 143.051 293.278,143.499 291.497,145.100 290.980 C 147.707 290.137,147.739 288.042,145.136 288.614 C 144.077 288.847,143.652 288.481,144.267 287.867 C 144.757 287.376,147.496 287.593,147.966 288.159 M156.117 288.005 C 156.750 288.719,156.716 294.043,156.079 293.922 C 155.561 293.823,155.353 293.235,155.200 291.437 C 154.836 287.153,153.123 287.221,152.800 291.532 C 152.491 295.658,151.439 295.285,151.285 290.994 L 151.171 287.789 153.557 287.800 C 154.870 287.806,156.022 287.898,156.117 288.005 M173.362 288.122 C 174.343 288.840,174.071 290.561,172.951 290.721 C 172.238 290.823,172.134 290.680,172.297 289.826 C 172.432 289.119,172.287 288.732,171.819 288.552 C 170.844 288.178,170.103 289.039,170.651 289.909 C 170.947 290.378,170.956 290.801,170.679 291.245 C 170.055 292.244,170.646 293.189,172.072 293.474 C 173.165 293.693,173.243 293.778,172.581 294.028 C 170.503 294.815,168.800 293.498,168.800 291.105 C 168.800 288.432,171.431 286.711,173.362 288.122 M181.207 288.400 C 181.849 289.411,181.701 294.000,181.027 294.000 C 180.332 294.000,180.041 293.110,180.063 291.054 C 180.073 290.124,179.815 289.248,179.416 288.854 C 178.330 287.785,177.494 289.260,177.700 291.883 C 177.859 293.909,177.446 294.701,176.564 294.063 C 176.279 293.857,176.103 288.906,176.349 288.000 C 176.491 287.476,180.849 287.835,181.207 288.400 M188.602 288.900 C 188.115 291.318,187.964 291.550,186.581 292.006 C 184.786 292.599,184.829 293.102,186.700 293.413 C 189.432 293.867,190.196 294.600,189.196 295.805 C 188.466 296.684,187.732 296.527,187.768 295.500 C 187.794 294.762,187.557 294.577,186.449 294.471 C 184.755 294.309,184.172 294.827,184.777 295.957 C 185.166 296.685,185.118 296.800,184.422 296.800 C 183.667 296.800,183.617 296.551,183.636 292.906 C 183.658 288.995,183.960 288.000,185.129 288.000 C 185.620 288.000,185.653 288.107,185.280 288.480 C 184.083 289.677,185.333 292.252,186.600 291.200 C 187.361 290.568,187.370 289.427,186.619 288.676 C 185.881 287.939,186.221 287.600,187.698 287.600 C 188.800 287.600,188.849 287.671,188.602 288.900 M195.767 289.100 C 195.453 290.855,194.649 291.906,193.490 292.078 C 191.893 292.314,192.307 293.137,194.163 293.415 C 196.358 293.744,197.042 294.401,196.414 295.574 C 195.811 296.701,194.783 296.650,194.905 295.500 C 194.986 294.728,194.787 294.582,193.497 294.476 C 191.870 294.341,191.125 295.145,191.952 296.142 C 192.567 296.883,192.053 297.257,191.112 296.753 C 190.509 296.430,190.391 296.089,190.598 295.267 C 190.746 294.680,190.858 293.041,190.848 291.624 C 190.828 288.975,191.227 288.000,192.329 288.000 C 192.820 288.000,192.853 288.107,192.480 288.480 C 191.283 289.677,192.533 292.252,193.800 291.200 C 194.130 290.926,194.400 290.377,194.400 289.980 C 194.400 289.582,194.130 288.987,193.800 288.657 C 192.915 287.772,193.048 287.600,194.618 287.600 L 196.036 287.600 195.767 289.100 M199.639 290.804 C 199.873 293.730,199.630 294.541,198.636 294.158 C 197.899 293.874,198.059 287.553,198.800 287.694 C 199.243 287.778,199.463 288.592,199.639 290.804 M206.000 288.234 C 206.000 288.515,205.595 288.802,205.100 288.872 C 204.297 288.986,204.178 289.280,204.000 291.600 C 203.850 293.556,203.651 294.200,203.200 294.200 C 202.680 294.200,201.857 288.895,202.239 288.000 C 202.443 287.522,206.000 287.743,206.000 288.234 M209.239 290.804 C 209.473 293.730,209.230 294.540,208.236 294.158 C 207.489 293.871,207.639 287.549,208.389 287.692 C 208.846 287.779,209.060 288.566,209.239 290.804 M227.096 288.289 C 227.179 288.536,226.831 288.797,226.323 288.869 C 225.492 288.987,225.380 289.259,225.200 291.600 C 225.050 293.556,224.851 294.200,224.400 294.200 C 223.870 294.200,223.058 288.865,223.452 287.978 C 223.639 287.558,226.947 287.841,227.096 288.289 M233.269 288.262 C 234.194 289.099,234.209 290.264,233.300 290.732 C 232.171 291.313,231.533 290.897,232.114 289.959 C 232.621 289.142,231.922 288.250,231.000 288.538 C 230.447 288.710,230.243 290.400,230.776 290.400 C 231.071 290.400,231.060 290.635,230.740 291.147 C 230.067 292.225,230.567 293.114,232.081 293.530 C 233.387 293.889,233.390 293.895,232.384 294.169 C 230.930 294.563,229.255 293.795,228.762 292.507 C 227.568 289.387,230.970 286.182,233.269 288.262 M244.352 288.200 C 245.101 288.965,245.036 293.782,244.274 293.929 C 243.717 294.036,243.600 293.722,243.600 292.118 C 243.600 289.801,242.648 288.096,241.764 288.830 C 241.399 289.133,241.200 290.105,241.200 291.582 C 241.200 294.046,241.030 294.463,240.161 294.130 C 239.768 293.979,239.600 293.212,239.600 291.571 C 239.600 289.632,239.461 289.154,238.794 288.797 C 237.754 288.240,237.392 289.043,237.441 291.800 C 237.475 293.763,237.103 294.491,236.236 294.158 C 235.896 294.028,235.687 289.365,235.960 288.000 C 236.037 287.615,243.964 287.804,244.352 288.200 M248.720 290.564 C 248.858 293.745,248.672 294.479,247.815 294.150 C 246.835 293.774,246.917 287.487,247.900 287.675 C 248.471 287.784,248.622 288.314,248.720 290.564 M252.447 290.127 C 252.918 294.449,254.498 294.745,254.800 290.569 C 255.100 286.412,256.156 286.642,256.317 290.900 L 256.434 294.000 255.050 294.000 C 254.288 294.000,253.426 294.088,253.133 294.196 C 251.843 294.670,250.070 288.864,251.169 287.764 C 251.727 287.206,252.229 288.134,252.447 290.127 M267.128 288.200 C 267.908 289.045,268.048 294.068,267.287 293.923 C 266.762 293.823,266.551 293.246,266.394 291.478 C 266.175 289.025,265.468 288.079,264.471 288.907 C 264.075 289.235,263.964 290.028,264.083 291.670 C 264.192 293.178,264.090 294.033,263.788 294.149 C 262.857 294.506,262.442 293.725,262.323 291.390 C 262.135 287.731,260.656 287.819,260.481 291.500 C 260.377 293.672,260.259 294.000,259.581 294.000 C 258.855 294.000,258.309 288.623,258.967 287.967 C 259.326 287.610,266.780 287.823,267.128 288.200 M281.783 301.751 C 281.546 303.015,281.916 303.619,287.565 311.166 C 294.360 320.245,294.031 319.566,292.327 321.000 C 290.441 322.587,287.260 321.519,278.572 316.382 C 272.430 312.750,272.418 312.781,277.103 320.226 C 280.098 324.986,280.777 325.823,281.780 325.997 C 282.426 326.108,282.920 326.335,282.877 326.500 C 282.835 326.665,282.800 326.938,282.800 327.107 C 282.800 327.612,278.540 330.000,277.637 330.000 C 276.634 330.000,276.559 329.329,277.453 328.341 C 278.066 327.664,277.898 327.262,274.778 321.910 C 269.425 312.727,268.400 311.200,267.588 311.200 C 265.686 311.200,266.424 309.603,268.952 308.250 L 270.353 307.499 274.477 309.899 C 281.527 314.002,287.122 316.851,287.363 316.460 C 287.793 315.764,279.426 304.614,278.361 304.466 C 276.511 304.208,276.520 303.601,278.400 301.967 C 280.755 299.920,282.143 299.831,281.783 301.751 M181.299 303.417 C 181.722 303.579,181.818 304.180,181.682 305.817 C 181.536 307.576,181.618 308.000,182.104 308.000 C 182.832 308.000,185.600 305.024,185.600 304.242 C 185.600 303.567,186.578 303.140,187.400 303.455 C 188.277 303.792,188.184 303.985,186.164 306.037 C 184.061 308.171,184.087 308.357,187.016 312.194 C 187.965 313.437,188.331 314.229,188.073 314.487 C 187.318 315.242,186.046 314.347,184.843 312.215 C 182.935 308.834,181.408 309.096,181.669 312.760 C 181.796 314.545,181.766 314.600,180.664 314.600 L 179.529 314.600 179.464 309.100 C 179.397 303.323,179.579 302.757,181.299 303.417 M192.800 305.603 L 193.000 307.800 195.067 307.920 C 197.415 308.056,197.890 307.471,197.429 305.012 C 197.164 303.603,197.839 302.968,199.156 303.386 C 199.711 303.562,199.791 304.351,199.736 309.095 L 199.671 314.600 198.536 314.600 C 197.405 314.600,197.400 314.589,197.400 312.000 L 197.400 309.400 195.200 309.400 L 193.000 309.400 193.005 311.916 C 193.009 314.339,191.977 315.710,190.934 314.667 C 190.517 314.251,190.580 303.609,191.000 303.427 C 192.158 302.926,192.606 303.468,192.800 305.603 M207.893 303.700 C 208.333 304.263,211.611 313.072,211.726 314.000 C 211.896 315.377,209.456 314.711,209.167 313.302 C 208.476 309.920,204.977 309.736,204.438 313.054 C 204.181 314.631,203.483 315.109,202.426 314.430 C 202.011 314.163,201.968 313.914,202.272 313.530 C 202.504 313.239,203.278 311.200,203.992 309.000 C 205.783 303.488,206.726 302.206,207.893 303.700 M220.037 303.620 C 221.369 304.333,220.468 304.884,218.429 304.604 C 214.922 304.122,214.532 306.379,217.842 308.000 C 221.214 309.652,221.981 310.992,220.808 313.184 C 219.761 315.141,213.600 315.395,213.600 313.481 C 213.600 313.278,214.622 313.240,215.939 313.393 C 220.260 313.894,220.891 311.109,216.800 309.590 C 214.097 308.587,213.086 307.004,213.860 304.988 C 214.408 303.560,218.310 302.696,220.037 303.620 M124.826 304.014 C 125.904 304.591,125.831 305.188,123.849 312.097 C 121.170 321.432,120.183 326.205,120.697 327.334 C 121.452 328.990,120.729 329.382,118.754 328.390 C 115.120 326.564,113.166 324.400,115.151 324.400 C 116.371 324.400,118.389 320.007,117.661 318.937 C 117.177 318.227,112.675 315.200,112.102 315.200 C 110.738 315.200,107.953 318.076,108.205 319.225 C 108.559 320.835,107.777 321.031,105.975 319.783 C 102.286 317.227,101.661 316.000,104.046 316.000 C 105.439 316.000,107.258 314.817,115.970 308.251 C 122.132 303.606,123.152 303.118,124.826 304.014 M205.989 307.221 C 205.065 308.947,206.109 310.573,207.547 309.647 C 207.992 309.361,208.005 309.026,207.616 307.848 C 207.074 306.206,206.625 306.033,205.989 307.221 M117.700 310.166 C 113.871 313.259,113.885 313.222,116.060 314.797 C 118.616 316.649,118.892 316.494,120.171 312.490 C 121.861 307.202,121.634 306.989,117.700 310.166 M143.809 315.175 C 146.036 316.185,147.273 317.511,146.100 317.631 C 144.017 317.843,144.576 317.018,140.612 325.739 C 135.835 336.250,135.763 335.655,141.968 336.940 C 145.462 337.663,145.912 337.996,145.278 339.389 C 144.515 341.063,142.551 340.569,133.900 336.523 C 130.652 335.005,129.638 333.600,131.791 333.600 C 133.044 333.600,133.173 333.390,137.403 324.471 C 140.293 318.376,140.837 316.923,140.634 315.843 C 140.229 313.680,140.422 313.639,143.809 315.175 M253.857 321.745 C 260.604 329.842,264.562 334.019,265.788 334.337 C 267.815 334.862,267.456 335.702,264.604 337.108 C 261.077 338.848,260.229 338.835,260.564 337.049 C 260.789 335.853,260.621 335.479,259.109 333.812 L 257.400 331.927 254.400 333.123 L 251.400 334.320 251.405 336.796 C 251.411 339.213,251.811 340.004,253.280 340.493 C 254.278 340.826,252.886 341.939,250.499 342.715 C 247.359 343.736,246.650 343.440,247.754 341.570 C 248.536 340.246,248.512 338.282,247.550 325.285 C 247.098 319.183,247.199 318.672,248.986 318.008 C 250.231 317.545,250.583 317.815,253.857 321.745 M168.853 323.799 C 174.657 325.224,175.250 325.521,174.908 326.831 C 174.467 328.517,173.705 328.603,170.878 327.284 C 166.315 325.155,166.063 325.187,165.225 328.000 C 163.749 332.956,163.709 332.866,167.824 333.820 C 171.460 334.663,172.493 335.508,170.900 336.335 C 170.440 336.575,169.114 336.440,167.028 335.942 C 163.303 335.052,163.378 335.005,162.381 338.846 C 160.971 344.275,161.038 344.372,166.400 344.662 C 171.514 344.940,171.671 344.996,171.524 346.514 C 171.413 347.668,171.256 347.812,170.000 347.913 C 168.442 348.038,156.170 345.130,155.522 344.482 C 154.969 343.929,155.468 343.200,156.400 343.200 C 157.425 343.200,157.302 343.507,160.000 334.167 C 162.430 325.753,162.721 324.246,162.000 323.800 C 161.305 323.371,161.567 322.400,162.377 322.400 C 162.805 322.400,165.719 323.030,168.853 323.799 M250.183 326.857 C 250.591 332.078,250.900 332.406,253.971 330.881 C 255.928 329.909,255.889 329.675,253.202 326.268 C 250.046 322.265,249.827 322.308,250.183 326.857 M229.773 325.979 C 232.187 327.570,232.604 329.944,231.000 332.962 C 229.619 335.559,229.707 335.880,232.100 336.947 C 238.102 339.626,236.869 345.799,229.907 347.932 C 223.247 349.971,218.387 349.942,220.330 347.874 L 221.209 346.938 220.210 339.672 C 218.735 328.950,218.777 329.140,217.667 328.112 C 216.308 326.852,216.798 326.475,220.640 325.829 C 225.481 325.015,228.383 325.062,229.773 325.979 M191.250 327.444 C 191.711 327.570,192.085 328.581,192.531 330.911 C 193.207 334.439,195.075 342.676,195.386 343.500 C 196.047 345.250,196.913 342.998,199.196 333.600 C 200.728 327.292,200.438 327.744,203.103 327.505 C 205.923 327.253,207.017 327.953,205.713 329.176 C 204.731 330.096,204.740 328.945,205.609 342.200 C 205.951 347.427,206.105 348.286,206.801 348.864 C 208.304 350.114,207.814 350.713,205.046 351.010 C 201.322 351.409,199.705 350.606,201.400 349.200 C 202.101 348.618,202.306 335.036,201.620 334.613 C 201.411 334.483,200.866 335.688,200.408 337.289 C 197.250 348.325,196.898 349.004,194.480 348.725 C 193.196 348.576,192.508 346.834,190.954 339.800 C 190.420 337.380,189.886 334.969,189.769 334.442 C 189.286 332.273,188.791 334.576,188.337 341.103 C 187.900 347.389,187.917 348.045,188.530 348.722 C 189.714 350.031,189.354 350.400,186.900 350.395 C 183.275 350.386,181.108 349.167,183.572 348.523 C 184.648 348.242,184.647 348.244,185.821 338.377 C 186.814 330.027,186.834 329.500,186.187 328.786 C 184.597 327.028,187.211 326.336,191.250 327.444 M222.394 328.607 C 221.081 330.189,222.526 335.600,224.262 335.600 C 227.853 335.600,229.790 332.674,228.215 329.629 C 227.324 327.907,223.529 327.240,222.394 328.607 M224.455 338.029 C 223.419 338.444,223.429 339.434,224.514 343.832 C 225.583 348.162,232.477 345.970,231.876 341.492 C 231.445 338.278,227.929 336.638,224.455 338.029  M -25 0 L -5 0 L -5 20 L -25 20 Z M 405 0 L 425 0 L 425 20 L 405 20 Z" stroke="none" fill="#063622" fill-rule="evenodd" transform="translate(490,0)"></path></g></svg>