<?xml version="1.0" standalone="no"?>
<!DOCTYPE svg PUBLIC "-//W3C//DTD SVG 20010904//EN"
 "http://www.w3.org/TR/2001/REC-SVG-20010904/DTD/svg10.dtd">
<svg version="1.0" xmlns="http://www.w3.org/2000/svg"
 width="500.000000pt" height="500.000000pt" viewBox="0 0 500.000000 500.000000"
 preserveAspectRatio="xMidYMid meet">
<g transform="translate(0.000000,500.000000) scale(0.070522,-0.070225)"
fill="#000000" stroke="none">
<path d="M3325 6950 c-501 -39 -927 -158 -1342 -375 -847 -444 -1471 -1230
-1703 -2145 -73 -290 -104 -540 -104 -845 2 -774 257 -1498 742 -2104 151
-189 416 -444 602 -582 470 -347 956 -549 1535 -639 177 -28 606 -39 790 -20
447 44 817 151 1210 350 351 177 627 380 895 657 545 562 867 1262 940 2038
13 142 13 484 0 616 -68 675 -305 1260 -728 1799 -104 131 -413 437 -551 543
-388 299 -809 504 -1272 617 -316 77 -719 113 -1014 90z m505 -150 c557 -50
1085 -244 1550 -567 195 -136 456 -377 613 -566 145 -174 360 -497 343 -515
-12 -11 -50 36 -131 159 -472 715 -1212 1215 -2044 1379 -223 44 -336 54 -611
54 -267 1 -341 -5 -570 -45 -236 -41 -493 -120 -720 -222 -527 -236 -956 -585
-1308 -1065 -60 -82 -78 -101 -80 -84 -5 32 137 240 257 377 548 626 1265
1000 2084 1089 150 17 463 19 617 6z m-270 -546 c0 -4 -7 -12 -16 -19 -15 -10
-15 -24 -5 -136 19 -198 22 -219 37 -219 19 0 18 -16 -2 -24 -21 -8 -104 -8
-104 0 0 4 6 12 14 18 12 9 12 33 2 153 -6 78 -14 144 -18 148 -3 4 -9 -9 -13
-27 -22 -105 -59 -245 -67 -255 -6 -7 -21 -13 -34 -13 -27 0 -49 39 -104 180
-18 47 -37 89 -42 95 -10 12 -10 -62 2 -190 6 -76 13 -102 26 -112 24 -17 18
-20 -45 -24 -37 -3 -56 0 -58 9 -3 6 2 12 10 12 8 0 17 6 19 13 2 6 1 84 -4
172 -7 132 -11 162 -25 172 -24 18 -10 26 55 31 l57 4 44 -119 c66 -176 71
-187 81 -177 5 5 23 73 39 151 16 78 32 146 35 152 8 12 116 16 116 5z m312
-19 c155 -23 190 -46 190 -122 0 -88 -66 -139 -168 -131 -65 6 -74 -4 -74 -77
0 -38 4 -48 20 -52 11 -3 20 -10 20 -15 0 -10 -90 -4 -132 8 -24 7 -23 24 1
24 22 0 24 7 46 164 19 141 19 185 0 192 -15 6 -21 24 -7 24 4 0 51 -7 104
-15z m-945 -71 c8 -22 -14 -34 -62 -34 -44 0 -112 -16 -119 -29 -7 -10 26
-131 36 -131 5 0 39 9 77 19 38 11 72 17 75 13 15 -14 1 -23 -69 -43 -41 -12
-75 -28 -75 -34 0 -7 9 -43 21 -80 20 -66 21 -67 50 -61 17 3 58 17 92 31 60
24 86 22 74 -7 -5 -15 -274 -95 -284 -84 -4 3 1 12 11 19 17 13 11 42 -71 330
-3 9 -14 17 -24 17 -41 0 -16 20 49 39 37 11 90 26 117 34 67 20 94 20 102 1z
m1467 -44 c103 -33 126 -44 126 -60 0 -31 -13 -30 -85 6 -90 46 -104 43 -127
-26 -10 -30 -17 -59 -14 -65 2 -6 36 -21 75 -33 39 -13 71 -27 71 -33 0 -13
-27 -11 -84 6 -79 24 -80 23 -105 -57 -11 -39 -18 -75 -14 -79 14 -12 115 -39
150 -39 26 0 33 -4 33 -19 0 -10 -6 -21 -12 -24 -22 -7 -278 77 -278 92 0 7 6
11 15 7 20 -7 26 7 80 178 43 140 45 150 29 167 -25 28 -6 25 140 -21z m-1909
-132 c86 -68 56 -180 -65 -243 -36 -19 -36 -20 -7 -76 18 -33 30 -45 50 -47
41 -5 33 -16 -33 -45 -71 -32 -90 -34 -65 -7 17 19 16 23 -26 112 -88 186
-103 213 -127 216 -12 2 -22 6 -22 10 0 7 155 81 194 94 41 12 74 8 101 -14z
m2282 -15 c58 -30 64 -40 32 -45 -15 -2 -34 -26 -61 -75 -21 -39 -35 -73 -31
-76 4 -3 53 12 108 32 88 32 100 39 98 59 -2 12 -1 22 2 22 18 0 95 -47 95
-58 0 -7 -5 -10 -10 -7 -6 4 -53 -8 -105 -25 -109 -36 -101 -21 -85 -178 5
-50 15 -101 22 -112 17 -27 4 -35 -33 -20 -41 17 -49 43 -49 161 0 54 -2 99
-5 99 -2 0 -22 -7 -43 -15 -46 -19 -92 -96 -71 -121 23 -28 -2 -28 -56 0 -58
29 -70 46 -32 46 24 0 27 5 122 184 47 90 55 113 46 128 -23 37 -13 37 56 1z
m-878 -618 c27 -13 75 -53 107 -88 l59 -64 159 -12 c186 -14 363 -47 460 -86
106 -43 201 -99 204 -123 2 -14 -18 -43 -65 -92 -147 -157 -285 -232 -518
-285 -136 -31 -141 -33 -169 -76 -47 -71 -100 -122 -151 -145 -89 -42 -97 -36
-129 89 -8 33 -16 61 -18 62 -2 2 -67 11 -143 20 -77 9 -191 27 -252 41 l-112
25 -72 -51 c-40 -27 -80 -50 -89 -50 -35 0 -141 63 -178 105 -21 24 -44 62
-51 84 -9 31 -17 41 -34 42 -31 2 -30 2 -53 -5 -16 -5 -23 0 -32 19 -9 19 -19
25 -45 25 -18 0 -39 -6 -46 -12 -10 -11 -16 -8 -33 15 -24 33 -46 34 -83 6
-22 -18 -29 -20 -36 -8 -5 8 -9 17 -9 22 0 12 -45 8 -62 -5 -8 -7 -27 -31 -42
-53 -37 -57 -134 -153 -183 -182 -25 -14 -53 -23 -70 -21 -45 5 -41 41 23 200
32 77 57 147 57 153 0 7 -23 67 -52 135 -57 130 -74 199 -50 201 29 2 65 -3
84 -14 36 -19 125 -110 177 -180 45 -61 54 -68 77 -62 25 6 46 25 54 48 2 6
17 0 34 -12 29 -22 73 -23 73 -2 0 4 6 16 14 26 13 18 15 18 41 1 34 -22 68
-15 83 18 11 25 12 25 41 9 28 -17 37 -16 248 25 120 23 299 54 398 68 99 14
187 29 195 33 10 6 17 31 22 75 3 37 14 79 23 93 15 22 22 25 57 19 22 -4 61
-17 87 -31z m2176 -1324 c6 -11 62 -169 188 -530 44 -129 89 -241 99 -250 10
-8 18 -19 18 -23 0 -5 -65 -8 -145 -8 -80 0 -145 3 -145 6 0 3 7 13 16 21 18
18 13 76 -9 123 -12 24 -17 25 -107 28 -128 4 -135 1 -154 -55 -20 -58 -20
-77 -1 -93 29 -24 14 -30 -75 -30 -53 0 -90 4 -90 10 0 6 4 10 10 10 16 0 34
44 160 415 68 198 127 366 133 373 11 14 93 17 102 3z m-4371 -43 c9 -24 59
-167 111 -318 141 -407 146 -421 161 -427 41 -16 -2 -23 -133 -23 -145 0 -146
0 -128 20 19 21 18 68 -4 123 l-11 27 -115 0 -116 0 -16 -37 c-22 -54 -21
-100 3 -118 17 -13 10 -14 -73 -15 -51 0 -93 3 -93 7 0 4 8 16 19 27 10 12 76
191 146 399 l128 377 53 0 52 0 16 -42z m-494 26 c0 -3 -10 -14 -22 -24 -23
-18 -23 -22 -28 -322 l-5 -303 -29 -53 c-54 -98 -174 -136 -299 -97 -137 43
-175 191 -58 226 45 13 78 7 112 -19 22 -19 22 -20 5 -56 -25 -52 -15 -86 24
-86 19 0 33 7 40 19 6 12 10 134 10 326 0 244 -3 313 -14 340 -8 19 -20 35
-25 35 -6 0 -11 5 -11 10 0 6 57 10 150 10 83 0 150 -3 150 -6z m1262 -191
c74 -108 140 -199 147 -201 10 -3 12 34 9 166 -3 161 -4 172 -25 194 -13 14
-23 27 -23 31 0 4 43 7 95 7 52 0 95 -3 95 -7 0 -4 -10 -17 -22 -31 -23 -23
-23 -26 -26 -393 l-3 -369 -44 0 -45 0 -190 285 c-105 157 -195 285 -201 285
-7 0 -9 -83 -7 -254 3 -247 4 -255 26 -285 l23 -31 -96 0 -96 0 23 31 c23 30
23 35 26 367 3 325 2 337 -18 364 -11 15 -20 30 -20 33 0 3 53 5 119 5 l119 0
134 -197z m972 120 c4 -43 9 -95 12 -115 8 -53 -7 -47 -35 12 -13 28 -37 62
-53 75 -27 23 -38 25 -123 25 -75 0 -94 -3 -99 -16 -3 -9 -6 -69 -6 -134 0
-138 4 -145 81 -138 52 5 102 40 115 80 15 50 24 5 24 -128 l0 -146 -48 51
c-47 50 -49 51 -105 51 -52 0 -57 -2 -63 -25 -3 -14 -4 -71 -2 -126 3 -74 8
-103 18 -109 8 -6 53 -10 100 -10 101 0 136 16 178 84 53 85 53 85 48 41 -3
-22 -8 -75 -11 -117 l-7 -78 -284 0 c-156 0 -284 2 -284 5 0 3 9 15 20 27 19
21 20 36 20 364 l0 342 -26 31 -26 31 275 0 275 0 6 -77z m1391 -14 c4 -49 5
-92 3 -94 -2 -3 -19 15 -37 39 -43 57 -83 79 -141 74 l-45 -3 -3 -324 c-2
-309 -1 -325 18 -358 11 -19 20 -36 20 -39 0 -2 -65 -4 -145 -4 -80 0 -145 3
-145 7 0 4 10 17 23 31 22 23 22 28 25 337 2 223 0 321 -8 336 -11 19 -18 21
-66 17 -45 -4 -61 -11 -89 -38 -23 -23 -35 -43 -35 -61 0 -22 -4 -27 -20 -26
-13 1 -20 8 -20 23 0 27 -34 70 -70 89 -37 19 -104 19 -119 1 -9 -10 -11 -102
-9 -334 3 -317 3 -321 26 -344 12 -14 22 -27 22 -31 0 -4 -65 -7 -145 -7 -80
0 -145 3 -145 7 0 3 8 15 18 26 15 17 17 51 20 350 3 360 5 347 -56 347 -55 0
-98 -25 -138 -80 -20 -28 -38 -49 -40 -47 -2 2 1 41 6 88 5 46 10 90 10 97 0
9 134 12 639 12 l639 0 7 -91z m518 76 c178 -46 259 -148 226 -281 -15 -59
-75 -122 -142 -150 -51 -21 -57 -32 -28 -58 10 -9 28 -43 40 -75 33 -91 59
-124 114 -141 53 -17 57 -27 24 -58 -73 -69 -200 -67 -255 2 -11 15 -31 57
-43 94 -30 93 -68 161 -99 177 -46 24 -52 9 -48 -118 3 -103 5 -118 26 -139
12 -14 22 -27 22 -31 0 -4 -65 -7 -145 -7 -80 0 -145 3 -145 6 0 3 9 17 20 31
19 25 20 41 20 364 l0 337 -26 31 -26 31 204 0 c149 0 219 -4 261 -15z m-485
-1147 l3 -28 -1320 0 -1321 0 0 25 0 25 1203 3 c661 1 1254 2 1317 2 l115 0 3
-27z m-281 -244 c3 -8 2 -19 -3 -24 -5 -4 -471 -10 -1037 -12 -974 -3 -1027
-2 -1033 14 -3 10 -2 22 1 28 4 7 354 10 1036 10 926 0 1030 -2 1036 -16z
m-299 -291 c2 -14 -2 -23 -10 -23 -7 1 -336 -1 -732 -3 -752 -3 -738 -4 -722
38 4 13 100 14 733 12 l728 -2 3 -22z m-2457 -258 c92 -101 103 -129 74 -185
-45 -87 -151 -95 -224 -16 -14 14 -29 26 -35 26 -6 0 -29 -19 -53 -42 -40 -39
-42 -43 -26 -60 9 -10 13 -21 9 -25 -8 -9 -106 87 -106 104 0 16 12 17 26 3
12 -12 42 10 183 135 75 67 89 84 85 103 -7 33 5 26 67 -43z m3519 31 c9 -12
4 -20 -32 -42 -54 -35 -67 -51 -68 -90 0 -58 99 -175 174 -203 15 -6 38 -8 51
-5 27 7 95 77 95 97 0 15 -84 79 -93 71 -3 -3 -11 -3 -17 1 -11 7 24 65 39 65
14 0 136 -102 139 -116 2 -8 -5 -14 -17 -14 -14 0 -29 -17 -53 -62 -27 -51
-42 -67 -81 -87 -42 -21 -52 -23 -86 -13 -80 25 -191 169 -191 251 0 41 39
111 77 140 33 24 47 26 63 7z m951 -148 c-17 -27 -31 -51 -31 -54 0 -2 -34
-55 -76 -117 -299 -441 -730 -822 -1194 -1052 -370 -185 -696 -283 -1096 -330
-150 -17 -507 -20 -652 -5 -533 57 -998 220 -1438 506 -342 221 -679 554 -899
887 -31 47 -36 60 -25 70 10 10 12 9 7 -4 -3 -10 0 -16 8 -15 7 0 53 -52 102
-117 479 -630 1139 -1050 1900 -1211 187 -39 331 -56 543 -63 534 -16 1023 88
1502 321 310 151 565 333 832 595 175 172 304 330 442 538 82 125 100 147 102
126 2 -15 -9 -45 -27 -75z m-1301 -156 c0 -4 -4 -12 -9 -17 -6 -6 32 -65 101
-158 90 -121 110 -152 101 -165 -24 -40 -108 -14 -266 82 -77 47 -103 53 -80
18 6 -9 39 -61 73 -115 51 -80 65 -97 81 -92 36 12 19 -14 -26 -41 -46 -27
-68 -27 -46 0 10 11 -4 42 -72 158 -47 80 -94 148 -106 154 l-22 12 29 21 c17
11 33 21 37 21 4 0 33 -15 64 -34 102 -62 244 -136 250 -131 13 14 -156 238
-174 232 -28 -11 -25 9 7 35 32 27 58 36 58 20z m-2771 -66 c10 -11 6 -37 -18
-118 -51 -173 -71 -270 -60 -290 14 -26 -5 -23 -58 7 -44 26 -55 45 -28 45 15
0 32 32 42 81 4 22 -2 30 -44 57 -28 18 -56 32 -64 32 -24 0 -81 -64 -68 -77
6 -6 7 -13 1 -17 -10 -6 -92 51 -92 65 0 5 10 9 23 9 24 0 99 49 237 155 88
67 109 75 129 51z m344 -198 c40 -21 41 -22 17 -28 -20 -5 -36 -31 -93 -159
-78 -176 -79 -171 31 -191 60 -12 74 -24 51 -47 -13 -13 -45 -4 -166 52 -77
35 -96 55 -54 55 13 0 37 40 91 152 59 125 70 155 61 170 -16 25 8 24 62 -4z
m1950 -130 c122 -148 183 -209 201 -202 9 3 16 1 16 -5 0 -6 -25 -23 -55 -38
-54 -26 -79 -26 -57 0 9 10 5 23 -19 55 -17 23 -34 42 -39 42 -4 0 -33 -11
-64 -25 l-57 -25 7 -48 c8 -54 12 -64 24 -57 5 3 11 1 15 -5 7 -11 -57 -40
-88 -40 -16 0 -18 3 -9 12 13 13 15 134 3 302 -6 101 0 126 33 126 7 0 47 -42
89 -92z m-1505 -19 c74 -17 92 -25 92 -40 0 -29 -16 -31 -63 -10 -23 11 -55
23 -69 26 -25 6 -28 4 -42 -46 -23 -78 -22 -87 22 -98 20 -6 44 -11 52 -11 23
0 43 -16 36 -28 -4 -7 -27 -5 -68 4 -34 8 -65 11 -69 7 -5 -5 -16 -39 -26 -75
-13 -50 -15 -70 -6 -79 6 -6 47 -13 92 -16 71 -5 81 -8 81 -25 0 -10 -6 -21
-14 -24 -12 -5 -116 16 -228 47 -40 10 -52 29 -19 29 10 0 21 8 24 18 71 245
88 315 78 325 -18 18 -12 30 12 23 12 -3 64 -15 115 -27z m1073 -48 c35 -36
36 -53 4 -109 -28 -49 -27 -57 12 -67 65 -16 95 -89 58 -142 -21 -30 -112 -62
-198 -69 -63 -5 -70 -4 -54 9 22 18 21 41 -3 212 -15 101 -25 143 -37 152 -22
17 -18 19 47 31 105 19 138 15 171 -17z m-685 -15 c1 0 16 -66 33 -146 31
-141 45 -179 55 -149 14 42 47 163 61 227 l17 72 44 0 c48 0 50 -1 32 -29 -9
-14 -9 -59 -1 -181 8 -135 13 -164 27 -172 28 -16 7 -28 -50 -28 -52 0 -71 11
-39 24 12 4 15 26 14 113 0 59 -4 128 -8 153 l-7 45 -13 -45 c-7 -25 -19 -72
-28 -105 -29 -107 -49 -145 -77 -145 -21 0 -27 8 -41 58 -10 31 -24 91 -32
132 -20 101 -23 110 -33 84 -14 -36 -24 -284 -11 -284 6 0 11 -4 11 -10 0 -13
-80 -13 -100 0 -13 8 -11 11 8 16 12 4 22 9 22 13 0 3 9 80 20 171 18 145 18
166 5 176 -24 18 -5 25 44 18 26 -4 47 -7 47 -8z"/>
<path d="M3863 6188 c-4 -7 -13 -46 -19 -86 -9 -66 -9 -74 7 -83 23 -12 59
-11 97 2 39 14 62 73 44 114 -20 44 -110 81 -129 53z"/>
<path d="M2345 5945 c-22 -8 -41 -15 -42 -15 -15 -1 58 -170 73 -170 12 0 51
24 77 48 38 36 36 75 -7 118 -38 38 -44 39 -101 19z"/>
<path d="M3776 5325 c-3 -9 -6 -44 -6 -77 l0 -61 103 8 c56 4 104 9 106 11 8
8 -63 75 -104 99 -57 34 -91 40 -99 20z"/>
<path d="M2240 5165 c0 -3 23 -56 50 -117 28 -61 50 -126 50 -144 0 -17 -22
-84 -50 -148 -51 -118 -56 -136 -42 -136 13 0 132 121 163 167 29 42 29 42 12
78 -14 30 -15 41 -5 68 11 28 9 35 -15 72 -47 71 -163 185 -163 160z"/>
<path d="M3772 5140 c-33 -14 -38 -38 -12 -65 24 -26 22 -39 -12 -86 -9 -13
-7 -22 10 -47 45 -62 16 -71 -47 -14 l-42 37 25 34 c32 43 32 52 2 80 -14 13
-22 29 -19 37 7 19 -20 28 -63 20 -44 -9 -53 -30 -25 -60 26 -28 27 -48 1 -71
-11 -10 -20 -23 -20 -30 0 -7 9 -20 20 -30 22 -20 27 -55 7 -55 -18 0 -87 59
-87 74 0 7 9 25 21 40 23 29 20 47 -15 90 -21 25 -27 28 -65 21 -46 -8 -50
-19 -21 -50 20 -21 20 -21 -7 -58 l-26 -37 21 -23 c23 -25 29 -57 11 -57 -16
0 -89 60 -89 72 0 6 12 27 27 46 l26 35 -27 24 c-49 42 -133 23 -96 -22 10
-12 7 -21 -14 -50 l-27 -35 25 -31 c25 -29 27 -49 5 -49 -15 0 -89 62 -89 74
0 6 9 22 20 36 33 42 22 70 -29 70 -9 0 -36 -20 -60 -44 l-43 -43 26 -28 c55
-59 16 -76 -49 -20 l-40 34 18 32 18 32 -42 -6 c-26 -3 -52 -15 -67 -30 l-24
-25 22 -30 c22 -30 21 -52 -3 -52 -7 1 -29 16 -50 35 -30 26 -37 38 -32 54 3
12 3 21 -2 20 -4 0 -87 -17 -183 -37 -132 -28 -175 -41 -175 -52 0 -11 19 -17
75 -23 155 -15 204 -27 525 -127 182 -56 370 -111 420 -121 123 -25 332 -34
490 -20 133 11 344 47 358 61 5 4 -15 22 -43 40 -36 23 -61 49 -83 88 l-30 55
-93 -7 c-110 -8 -150 3 -218 59 -62 50 -75 74 -50 92 10 7 28 13 40 13 35 0
36 13 2 54 -23 28 -28 40 -19 49 32 32 -19 50 -77 27z"/>
<path d="M4250 5115 c-11 -13 -8 -21 15 -45 l28 -29 -22 -52 c-41 -100 -22
-182 56 -233 78 -52 182 -42 282 26 67 47 191 168 191 188 0 35 -210 115 -377
145 -112 19 -157 19 -173 0z"/>
<path d="M3907 4958 c-15 -9 29 -45 75 -59 27 -9 55 -9 113 0 43 6 81 14 86
17 8 5 13 32 7 35 -11 6 -272 12 -281 7z"/>
<path d="M2990 4710 c0 -25 23 -51 84 -95 35 -25 71 -45 80 -45 21 0 86 48 86
64 0 6 -51 26 -113 45 -61 19 -118 36 -124 39 -7 2 -13 -1 -13 -8z"/>
<path d="M3930 4553 c-19 -3 -38 -8 -42 -12 -13 -12 23 -121 40 -121 35 0 110
65 146 128 7 12 -60 15 -144 5z"/>
<path d="M5916 3620 c-21 -61 -35 -118 -32 -126 8 -21 144 -20 153 2 7 18 -60
227 -74 231 -5 2 -27 -46 -47 -107z"/>
<path d="M1528 3608 c-21 -61 -35 -115 -32 -120 3 -4 38 -8 79 -8 41 0 76 4
79 8 8 13 -67 232 -79 232 -6 0 -27 -50 -47 -112z"/>
<path d="M5142 3942 c-9 -6 -12 -48 -10 -173 l3 -164 51 0 c70 1 142 39 171
91 48 83 21 184 -59 225 -44 23 -136 35 -156 21z"/>
<path d="M1720 1980 l-65 -60 39 -35 c50 -44 87 -46 127 -6 37 38 38 82 3 128
-14 18 -28 33 -32 33 -4 -1 -36 -28 -72 -60z"/>
<path d="M3933 1304 c-8 -21 4 -115 16 -127 15 -15 89 10 102 34 15 28 3 86
-21 99 -30 16 -90 12 -97 -6z"/>
<path d="M3976 1143 c-16 -4 -18 -12 -13 -51 12 -101 31 -117 106 -91 39 14
54 41 46 79 -12 55 -70 81 -139 63z"/>
</g>
</svg>
